<?xml version="1.0" standalone="yes"?>

<svg version="1.1" viewBox="0.0 0.0 532.6272965879265 553.4461942257218" fill="none" stroke="none" stroke-linecap="square" stroke-miterlimit="10" xmlns="http://www.w3.org/2000/svg" xmlns:xlink="http://www.w3.org/1999/xlink"><clipPath id="p.0"><path d="m0 0l532.6273 0l0 553.44617l-532.6273 0l0 -553.44617z" clip-rule="nonzero"></path></clipPath><g clip-path="url(#p.0)"><path fill="#000000" fill-opacity="0.0" d="m0 0l532.6273 0l0 553.44617l-532.6273 0z" fill-rule="evenodd"></path><path fill="#000000" fill-opacity="0.0" d="m22.553806 27.75853l484.9134 0l0 507.46454l-484.9134 0z" fill-rule="evenodd"></path><path stroke="#000000" stroke-width="1.0" stroke-linejoin="round" stroke-linecap="butt" d="m22.553806 27.75853l484.9134 0l0 507.46454l-484.9134 0z" fill-rule="evenodd"></path><path fill="#000000" fill-opacity="0.0" d="m54.650917 106.84266l0 0c0 -3.9139023 3.1728516 -7.086754 7.0867577 -7.086754l249.54303 0c1.8795166 0 3.6820679 0.74663544 5.011078 2.0756607c1.3290405 1.3290253 2.0756836 3.131569 2.0756836 5.011093l0 28.346169c0 3.91391 -3.1728516 7.0867615 -7.0867615 7.0867615l-249.54303 0c-3.913906 0 -7.0867577 -3.1728516 -7.0867577 -7.0867615z" fill-rule="evenodd"></path><path stroke="#000000" stroke-width="1.0" stroke-linejoin="round" stroke-linecap="butt" d="m54.650917 106.84266l0 0c0 -3.9139023 3.1728516 -7.086754 7.0867577 -7.086754l249.54303 0c1.8795166 0 3.6820679 0.74663544 5.011078 2.0756607c1.3290405 1.3290253 2.0756836 3.131569 2.0756836 5.011093l0 28.346169c0 3.91391 -3.1728516 7.0867615 -7.0867615 7.0867615l-249.54303 0c-3.913906 0 -7.0867577 -3.1728516 -7.0867577 -7.0867615z" fill-rule="evenodd"></path><path fill="#000000" fill-opacity="0.0" d="m353.06036 106.84266l0 0c0 -3.9139023 3.1728516 -7.086754 7.0867615 -7.086754l108.1257 0c1.8795166 0 3.6820679 0.74663544 5.011078 2.0756607c1.3290405 1.3290253 2.0756836 3.131569 2.0756836 5.011093l0 28.346169c0 3.91391 -3.1728516 7.0867615 -7.0867615 7.0867615l-108.1257 0c-3.91391 0 -7.0867615 -3.1728516 -7.0867615 -7.0867615z" fill-rule="evenodd"></path><path stroke="#000000" stroke-width="1.0" stroke-linejoin="round" stroke-linecap="butt" d="m353.06036 106.84266l0 0c0 -3.9139023 3.1728516 -7.086754 7.0867615 -7.086754l108.1257 0c1.8795166 0 3.6820679 0.74663544 5.011078 2.0756607c1.3290405 1.3290253 2.0756836 3.131569 2.0756836 5.011093l0 28.346169c0 3.91391 -3.1728516 7.0867615 -7.0867615 7.0867615l-108.1257 0c-3.91391 0 -7.0867615 -3.1728516 -7.0867615 -7.0867615z" fill-rule="evenodd"></path><path fill="#000000" fill-opacity="0.0" d="m59.855644 102.37008l238.55118 0l0 37.291344l-238.55118 0z" fill-rule="evenodd"></path><path fill="#000000" d="m77.12127 125.66508l-5.125 0l-1.046875 2.8437424l1.5 0q0.28125 0 0.390625 0.109375q0.125 0.109375 0.125 0.28125q0 0.171875 -0.125 0.28125q-0.109375 0.109375 -0.390625 0.109375l-2.921875 0q-0.265625 0 -0.390625 -0.109375q-0.125 -0.109375 -0.125 -0.28125q0 -0.171875 0.125 -0.28125q0.125 -0.109375 0.390625 -0.109375l0.609375 0l3.4375 -9.296867l-2.296875 0q-0.28125 0 -0.40625 -0.09375q-0.109375 -0.109375 -0.109375 -0.296875q0 -0.171875 0.109375 -0.28125q0.125 -0.109375 0.40625 -0.109375l3.921875 0l3.8125 10.078117l0.59375 0q0.28125 0 0.390625 0.109375q0.125 0.109375 0.125 0.28125q0 0.171875 -0.125 0.28125q-0.109375 0.109375 -0.390625 0.109375l-2.90625 0q-0.28125 0 -0.40625 -0.109375q-0.125 -0.109375 -0.125 -0.28125q0 -0.171875 0.125 -0.28125q0.125 -0.109375 0.40625 -0.109375l1.484375 0l-1.0625 -2.8437424zm-0.296875 -0.78125l-2.15625 -5.671875l-0.28125 0l-2.09375 5.671875l4.53125 0zm12.94873 -7.234375l0 10.859367l1.046875 0q0.28125 0 0.40625 0.109375q0.125 0.109375 0.125 0.28125q0 0.171875 -0.125 0.28125q-0.125 0.109375 -0.40625 0.109375l-1.828125 0l0 -1.5468674q-1.359375 1.8593674 -3.453125 1.8593674q-1.046875 0 -2.015625 -0.5625q-0.96875 -0.5625 -1.53125 -1.5937424q-0.5625 -1.046875 -0.5625 -2.15625q0 -1.109375 0.5625 -2.140625q0.5625 -1.046875 1.53125 -1.609375q0.96875 -0.5625 2.03125 -0.5625q2.046875 0 3.4375 1.859375l0 -4.40625l-1.046875 0q-0.28125 0 -0.40625 -0.109375q-0.125 -0.109375 -0.125 -0.28125q0 -0.171875 0.125 -0.28125q0.125 -0.109375 0.40625 -0.109375l1.828125 0zm-0.78125 7.640625q0 -1.484375 -1.015625 -2.5q-1.0 -1.03125 -2.375 -1.03125q-1.390625 0 -2.390625 1.03125q-1.0 1.015625 -1.0 2.5q0 1.46875 1.0 2.5q1.0 1.0312424 2.390625 1.0312424q1.375 0 2.375 -1.0312424q1.015625 -1.03125 1.015625 -2.5zm12.183105 -7.640625l0 10.859367l1.046875 0q0.28125 0 0.40625 0.109375q0.125 0.109375 0.125 0.28125q0 0.171875 -0.125 0.28125q-0.125 0.109375 -0.40625 0.109375l-1.828125 0l0 -1.5468674q-1.359375 1.8593674 -3.453125 1.8593674q-1.046875 0 -2.015625 -0.5625q-0.96875 -0.5625 -1.53125 -1.5937424q-0.5625 -1.046875 -0.5625 -2.15625q0 -1.109375 0.5625 -2.140625q0.5625 -1.046875 1.53125 -1.609375q0.96875 -0.5625 2.03125 -0.5625q2.046875 0 3.4375 1.859375l0 -4.40625l-1.046875 0q-0.28125 0 -0.40625 -0.109375q-0.125 -0.109375 -0.125 -0.28125q0 -0.171875 0.125 -0.28125q0.125 -0.109375 0.40625 -0.109375l1.828125 0zm-0.78125 7.640625q0 -1.484375 -1.015625 -2.5q-1.0 -1.03125 -2.375 -1.03125q-1.390625 0 -2.390625 1.03125q-1.0 1.015625 -1.0 2.5q0 1.46875 1.0 2.5q1.0 1.0312424 2.390625 1.0312424q1.375 0 2.375 -1.0312424q1.015625 -1.03125 1.015625 -2.5zm20.163086 -6.078125l0 9.296867l2.015625 0q0.28125 0 0.390625 0.109375q0.125 0.109375 0.125 0.28125q0 0.171875 -0.125 0.28125q-0.109375 0.109375 -0.390625 0.109375l-4.828125 0q-0.28125 0 -0.40625 -0.109375q-0.125 -0.109375 -0.125 -0.28125q0 -0.171875 0.125 -0.28125q0.125 -0.109375 0.40625 -0.109375l2.015625 0l0 -9.296867l-3.1875 0l0 2.703125q0 0.28125 -0.109375 0.40625q-0.109375 0.125 -0.28125 0.125q-0.171875 0 -0.28125 -0.125q-0.109375 -0.125 -0.109375 -0.40625l0 -3.484375l8.734375 0l0 3.484375q0 0.28125 -0.109375 0.40625q-0.109375 0.125 -0.28125 0.125q-0.1875 0 -0.296875 -0.125q-0.09375 -0.125 -0.09375 -0.40625l0 -2.703125l-3.1875 0zm15.370598 6.078125q0 1.78125 -1.28125 3.0468674q-1.28125 1.265625 -3.078125 1.265625q-1.8125 0 -3.09375 -1.265625q-1.2656174 -1.2812424 -1.2656174 -3.0468674q0 -1.78125 1.2656174 -3.046875q1.28125 -1.265625 3.09375 -1.265625q1.796875 0 3.078125 1.265625q1.28125 1.25 1.28125 3.046875zm-0.796875 0q0 -1.46875 -1.046875 -2.5q-1.03125 -1.03125 -2.515625 -1.03125q-1.484375 0 -2.53125 1.046875q-1.0468674 1.03125 -1.0468674 2.484375q0 1.453125 1.0468674 2.5q1.046875 1.0312424 2.53125 1.0312424q1.484375 0 2.515625 -1.0312424q1.046875 -1.046875 1.046875 -2.5zm11.808105 -1.921875l0 1.109375l-7.953125 0l0 -1.109375l7.953125 0zm4.3706055 5.1406174l0 -9.296867l-0.65625 0q-0.28125 0 -0.40625 -0.09375q-0.109375 -0.109375 -0.109375 -0.296875q0 -0.171875 0.109375 -0.28125q0.125 -0.109375 0.40625 -0.109375l4.1875 0q0.984375 0 1.796875 0.421875q0.8125 0.40625 1.25 0.921875q0.734375 0.875 1.109375 1.859375q0.265625 0.71875 0.265625 1.6875l0 1.078125q0 1.203125 -0.53125 2.328125q-0.53125 1.109375 -1.765625 1.9531174q-0.90625 0.609375 -2.125 0.609375l-4.1875 0q-0.28125 0 -0.40625 -0.109375q-0.109375 -0.109375 -0.109375 -0.28125q0 -0.171875 0.109375 -0.28125q0.125 -0.109375 0.40625 -0.109375l0.65625 0zm0.78125 0l2.828125 0q0.984375 0 1.84375 -0.6406174q0.859375 -0.640625 1.28125 -1.53125q0.4375 -0.890625 0.4375 -1.765625l0 -1.40625q0 -0.734375 -0.234375 -1.296875q-0.328125 -0.828125 -0.9375 -1.5625q-0.34375 -0.40625 -1.0 -0.75q-0.640625 -0.34375 -1.390625 -0.34375l-2.828125 0l0 9.296867zm18.04248 -3.2187424q0 1.78125 -1.28125 3.0468674q-1.28125 1.265625 -3.078125 1.265625q-1.8125 0 -3.09375 -1.265625q-1.265625 -1.2812424 -1.265625 -3.0468674q0 -1.78125 1.265625 -3.046875q1.28125 -1.265625 3.09375 -1.265625q1.796875 0 3.078125 1.265625q1.28125 1.25 1.28125 3.046875zm-0.796875 0q0 -1.46875 -1.046875 -2.5q-1.03125 -1.03125 -2.515625 -1.03125q-1.484375 0 -2.53125 1.046875q-1.046875 1.03125 -1.046875 2.484375q0 1.453125 1.046875 2.5q1.046875 1.0312424 2.53125 1.0312424q1.484375 0 2.515625 -1.0312424q1.046875 -1.046875 1.046875 -2.5zm16.67871 -7.640625l0 4.796875q0.734375 -0.8125 1.40625 -1.140625q0.6875 -0.328125 1.546875 -0.328125q0.90625 0 1.53125 0.328125q0.640625 0.3125 1.0625 0.984375q0.4375 0.65625 0.4375 1.390625l0 4.8281174l0.859375 0q0.296875 0 0.40625 0.109375q0.125 0.109375 0.125 0.28125q0 0.171875 -0.125 0.28125q-0.109375 0.109375 -0.40625 0.109375l-2.53125 0q-0.28125 0 -0.40625 -0.109375q-0.109375 -0.109375 -0.109375 -0.28125q0 -0.171875 0.109375 -0.28125q0.125 -0.109375 0.40625 -0.109375l0.875 0l0 -4.7812424q0 -0.84375 -0.609375 -1.40625q-0.609375 -0.5625 -1.6875 -0.5625q-0.859375 0 -1.453125 0.421875q-0.4375 0.296875 -1.4375 1.390625l0 4.9374924l0.875 0q0.28125 0 0.390625 0.109375q0.125 0.109375 0.125 0.28125q0 0.171875 -0.125 0.28125q-0.109375 0.109375 -0.390625 0.109375l-2.546875 0q-0.265625 0 -0.390625 -0.109375q-0.125 -0.109375 -0.125 -0.28125q0 -0.171875 0.125 -0.28125q0.125 -0.109375 0.390625 -0.109375l0.890625 0l0 -10.078117l-1.046875 0q-0.28125 0 -0.40625 -0.109375q-0.125 -0.109375 -0.125 -0.28125q0 -0.171875 0.125 -0.28125q0.125 -0.109375 0.40625 -0.109375l1.828125 0zm18.183105 7.8125l-7.953125 0q0.21875 1.515625 1.28125 2.4375q1.0625 0.9218674 2.625 0.9218674q0.875 0 1.828125 -0.28125q0.953125 -0.296875 1.5625 -0.7656174q0.171875 -0.140625 0.296875 -0.140625q0.15625 0 0.265625 0.125q0.109375 0.109375 0.109375 0.26561737q0 0.15625 -0.15625 0.296875q-0.4375 0.46875 -1.578125 0.875q-1.140625 0.40625 -2.328125 0.40625q-2.0 0 -3.34375 -1.3125q-1.34375 -1.3124924 -1.34375 -3.1874924q0 -1.6875 1.25 -2.90625q1.265625 -1.21875 3.125 -1.21875q1.90625 0 3.140625 1.25q1.234375 1.25 1.21875 3.234375zm-0.796875 -0.796875q-0.234375 -1.28125 -1.21875 -2.09375q-0.984375 -0.8125 -2.34375 -0.8125q-1.375 0 -2.359375 0.8125q-0.96875 0.796875 -1.21875 2.09375l7.140625 0zm7.0424805 -3.40625l0 1.96875q1.53125 -1.375 2.28125 -1.765625q0.75 -0.40625 1.390625 -0.40625q0.703125 0 1.296875 0.46875q0.59375 0.46875 0.59375 0.71875q0 0.171875 -0.109375 0.296875q-0.109375 0.109375 -0.296875 0.109375q-0.09375 0 -0.15625 -0.03125q-0.0625 -0.03125 -0.234375 -0.21875q-0.328125 -0.3125 -0.578125 -0.4375q-0.234375 -0.125 -0.46875 -0.125q-0.5 0 -1.21875 0.40625q-0.71875 0.40625 -2.5 2.0l0 4.2656174l3.453125 0q0.28125 0 0.40625 0.109375q0.125 0.109375 0.125 0.28125q0 0.171875 -0.125 0.28125q-0.125 0.109375 -0.40625 0.109375l-6.109375 0q-0.28125 0 -0.40625 -0.109375q-0.109375 -0.109375 -0.109375 -0.265625q0 -0.15625 0.109375 -0.265625q0.109375 -0.109375 0.40625 -0.109375l1.875 0l0 -6.4999924l-1.4375 0q-0.28125 0 -0.40625 -0.109375q-0.109375 -0.109375 -0.109375 -0.28125q0 -0.171875 0.109375 -0.28125q0.125 -0.109375 0.40625 -0.109375l2.21875 0zm16.558105 4.203125l-7.953125 0q0.21875 1.515625 1.28125 2.4375q1.0625 0.9218674 2.625 0.9218674q0.875 0 1.828125 -0.28125q0.953125 -0.296875 1.5625 -0.7656174q0.171875 -0.140625 0.296875 -0.140625q0.15625 0 0.265625 0.125q0.109375 0.109375 0.109375 0.26561737q0 0.15625 -0.15625 0.296875q-0.4375 0.46875 -1.578125 0.875q-1.140625 0.40625 -2.328125 0.40625q-2.0 0 -3.34375 -1.3125q-1.34375 -1.3124924 -1.34375 -3.1874924q0 -1.6875 1.25 -2.90625q1.265625 -1.21875 3.125 -1.21875q1.90625 0 3.140625 1.25q1.234375 1.25 1.21875 3.234375zm-0.796875 -0.796875q-0.234375 -1.28125 -1.21875 -2.09375q-0.984375 -0.8125 -2.34375 -0.8125q-1.375 0 -2.359375 0.8125q-0.96875 0.796875 -1.21875 2.09375l7.140625 0zm7.8081055 2.390625l0.34375 0q0.515625 0 0.890625 0.375q0.375 0.359375 0.375 0.8749924q0 0.53125 -0.375 0.90625q-0.375 0.359375 -0.890625 0.359375l-0.34375 0q-0.515625 0 -0.890625 -0.359375q-0.359375 -0.375 -0.359375 -0.890625q0 -0.5468674 0.375 -0.9062424q0.375 -0.359375 0.875 -0.359375zm11.401855 0l0.34375 0q0.515625 0 0.890625 0.375q0.375 0.359375 0.375 0.8749924q0 0.53125 -0.375 0.90625q-0.375 0.359375 -0.890625 0.359375l-0.34375 0q-0.515625 0 -0.890625 -0.359375q-0.359375 -0.375 -0.359375 -0.890625q0 -0.5468674 0.375 -0.9062424q0.375 -0.359375 0.875 -0.359375zm11.401871 0l0.34375 0q0.515625 0 0.890625 0.375q0.375 0.359375 0.375 0.8749924q0 0.53125 -0.375 0.90625q-0.375 0.359375 -0.890625 0.359375l-0.34375 0q-0.515625 0 -0.89064026 -0.359375q-0.359375 -0.375 -0.359375 -0.890625q0 -0.5468674 0.375 -0.9062424q0.37501526 -0.359375 0.87501526 -0.359375z" fill-rule="nonzero"></path><path fill="#000000" fill-opacity="0.0" d="m162.6483 45.97638l204.72441 0l0 42.519684l-204.72441 0z" fill-rule="evenodd"></path><path fill="#000000" d="m214.09497 62.818253l0 9.296875l2.015625 0q0.28125 0 0.390625 0.109375q0.125 0.109375 0.125 0.28125q0 0.171875 -0.125 0.28125q-0.109375 0.109375 -0.390625 0.109375l-4.828125 0q-0.28125 0 -0.40625 -0.109375q-0.125 -0.109375 -0.125 -0.28125q0 -0.171875 0.125 -0.28125q0.125 -0.109375 0.40625 -0.109375l2.015625 0l0 -9.296875l-3.1875 0l0 2.703125q0 0.28125 -0.109375 0.40625q-0.109375 0.125 -0.28125 0.125q-0.171875 0 -0.28125 -0.125q-0.109375 -0.125 -0.109375 -0.40625l0 -3.484375l8.734375 0l0 3.484375q0 0.28125 -0.109375 0.40625q-0.109375 0.125 -0.28125 0.125q-0.1875 0 -0.296875 -0.125q-0.09375 -0.125 -0.09375 -0.40625l0 -2.703125l-3.1875 0zm15.370605 6.078125q0 1.78125 -1.28125 3.046875q-1.28125 1.265625 -3.078125 1.265625q-1.8125 0 -3.09375 -1.265625q-1.265625 -1.28125 -1.265625 -3.046875q0 -1.78125 1.265625 -3.046875q1.28125 -1.265625 3.09375 -1.265625q1.796875 0 3.078125 1.265625q1.28125 1.25 1.28125 3.046875zm-0.796875 0q0 -1.46875 -1.046875 -2.5q-1.03125 -1.03125 -2.515625 -1.03125q-1.484375 0 -2.53125 1.046875q-1.046875 1.03125 -1.046875 2.484375q0 1.453125 1.046875 2.5q1.046875 1.03125 2.53125 1.03125q1.484375 0 2.515625 -1.03125q1.046875 -1.046875 1.046875 -2.5zm16.17871 3.21875l0 -9.296875l-0.65625 0q-0.28125 0 -0.40625 -0.09375q-0.109375 -0.109375 -0.109375 -0.296875q0 -0.171875 0.109375 -0.28125q0.125 -0.109375 0.40625 -0.109375l4.1875 0q0.984375 0 1.796875 0.421875q0.8125 0.40625 1.25 0.921875q0.734375 0.875 1.109375 1.859375q0.265625 0.71875 0.265625 1.6875l0 1.078125q0 1.203125 -0.53125 2.328125q-0.53125 1.109375 -1.765625 1.953125q-0.90625 0.609375 -2.125 0.609375l-4.1875 0q-0.28125 0 -0.40625 -0.109375q-0.109375 -0.109375 -0.109375 -0.28125q0 -0.171875 0.109375 -0.28125q0.125 -0.109375 0.40625 -0.109375l0.65625 0zm0.78125 0l2.828125 0q0.984375 0 1.84375 -0.640625q0.859375 -0.640625 1.28125 -1.53125q0.4375 -0.890625 0.4375 -1.765625l0 -1.40625q0 -0.734375 -0.234375 -1.296875q-0.328125 -0.828125 -0.9375 -1.5625q-0.34375 -0.40625 -1.0 -0.75q-0.640625 -0.34375 -1.390625 -0.34375l-2.828125 0l0 9.296875zm18.04248 -3.21875q0 1.78125 -1.28125 3.046875q-1.28125 1.265625 -3.078125 1.265625q-1.8125 0 -3.09375 -1.265625q-1.265625 -1.28125 -1.265625 -3.046875q0 -1.78125 1.265625 -3.046875q1.28125 -1.265625 3.09375 -1.265625q1.796875 0 3.078125 1.265625q1.28125 1.25 1.28125 3.046875zm-0.796875 0q0 -1.46875 -1.046875 -2.5q-1.03125 -1.03125 -2.515625 -1.03125q-1.484375 0 -2.53125 1.046875q-1.046875 1.03125 -1.046875 2.484375q0 1.453125 1.046875 2.5q1.046875 1.03125 2.53125 1.03125q1.484375 0 2.515625 -1.03125q1.046875 -1.046875 1.046875 -2.5zm17.881836 -6.078125l0 9.296875l5.1875 0l0 -3.09375q0 -0.28125 0.109375 -0.390625q0.109375 -0.125 0.28125 -0.125q0.171875 0 0.28125 0.109375q0.109375 0.109375 0.109375 0.40625l0 3.875l-8.609375 0q-0.28125 0 -0.40625 -0.109375q-0.109375 -0.109375 -0.109375 -0.28125q0 -0.171875 0.109375 -0.28125q0.125 -0.109375 0.40625 -0.109375l1.859375 0l0 -9.296875l-1.859375 0q-0.28125 0 -0.40625 -0.09375q-0.109375 -0.109375 -0.109375 -0.296875q0 -0.171875 0.109375 -0.28125q0.125 -0.109375 0.40625 -0.109375l4.5 0q0.28125 0 0.390625 0.109375q0.125 0.109375 0.125 0.28125q0 0.1875 -0.125 0.296875q-0.109375 0.09375 -0.390625 0.09375l-1.859375 0zm13.151855 -1.953125l0 2.015625l-1.15625 0l0 -2.015625l1.15625 0zm0.015625 4.0l0 7.25l3.0625 0q0.296875 0 0.40625 0.109375q0.125 0.109375 0.125 0.28125q0 0.171875 -0.125 0.28125q-0.109375 0.109375 -0.40625 0.109375l-6.90625 0q-0.265625 0 -0.390625 -0.109375q-0.125 -0.109375 -0.125 -0.28125q0 -0.171875 0.125 -0.28125q0.125 -0.109375 0.390625 -0.109375l3.0625 0l0 -6.46875l-2.265625 0q-0.28125 0 -0.40625 -0.109375q-0.125 -0.109375 -0.125 -0.28125q0 -0.171875 0.125 -0.28125q0.125 -0.109375 0.40625 -0.109375l3.046875 0zm13.57373 0.5q0 -0.265625 0.109375 -0.375q0.109375 -0.125 0.28125 -0.125q0.171875 0 0.28125 0.125q0.109375 0.109375 0.109375 0.40625l0 1.328125q0 0.28125 -0.109375 0.40625q-0.109375 0.109375 -0.28125 0.109375q-0.171875 0 -0.28125 -0.09375q-0.09375 -0.109375 -0.109375 -0.34375q-0.0625 -0.546875 -0.578125 -0.90625q-0.765625 -0.53125 -2.015625 -0.53125q-1.3125 0 -2.03125 0.53125q-0.546875 0.40625 -0.546875 0.890625q0 0.5625 0.640625 0.9375q0.453125 0.25 1.703125 0.390625q1.609375 0.171875 2.25 0.40625q0.890625 0.328125 1.328125 0.90625q0.453125 0.5625 0.453125 1.234375q0 0.984375 -0.953125 1.765625q-0.953125 0.78125 -2.8125 0.78125q-1.84375 0 -3.015625 -0.9375q0 0.3125 -0.046875 0.40625q-0.03125 0.09375 -0.125 0.15625q-0.09375 0.0625 -0.21875 0.0625q-0.171875 0 -0.28125 -0.109375q-0.109375 -0.125 -0.109375 -0.40625l0 -1.609375q0 -0.28125 0.109375 -0.390625q0.109375 -0.125 0.28125 -0.125q0.171875 0 0.28125 0.125q0.109375 0.109375 0.109375 0.296875q0 0.421875 0.21875 0.71875q0.328125 0.4375 1.03125 0.734375q0.71875 0.296875 1.75 0.296875q1.515625 0 2.25 -0.5625q0.75 -0.578125 0.75 -1.203125q0 -0.71875 -0.75 -1.15625q-0.765625 -0.4375 -2.21875 -0.578125q-1.453125 -0.15625 -2.078125 -0.390625q-0.625 -0.25 -0.984375 -0.734375q-0.359375 -0.484375 -0.359375 -1.03125q0 -1.015625 0.984375 -1.59375q0.984375 -0.59375 2.359375 -0.59375q1.609375 0 2.625 0.78125zm7.2143555 -0.5l4.234375 0q0.28125 0 0.390625 0.109375q0.125 0.109375 0.125 0.28125q0 0.171875 -0.125 0.28125q-0.109375 0.109375 -0.390625 0.109375l-4.234375 0l0 5.1875q0 0.6875 0.546875 1.140625q0.546875 0.453125 1.59375 0.453125q0.78125 0 1.703125 -0.234375q0.921875 -0.25 1.4375 -0.546875q0.1875 -0.109375 0.296875 -0.109375q0.15625 0 0.265625 0.125q0.109375 0.109375 0.109375 0.265625q0 0.140625 -0.125 0.25q-0.296875 0.3125 -1.4375 0.671875q-1.140625 0.359375 -2.1875 0.359375q-1.375 0 -2.1875 -0.640625q-0.796875 -0.640625 -0.796875 -1.734375l0 -5.1875l-1.4375 0q-0.28125 0 -0.40625 -0.109375q-0.109375 -0.109375 -0.109375 -0.28125q0 -0.171875 0.109375 -0.28125q0.125 -0.109375 0.40625 -0.109375l1.4375 0l0 -2.296875q0 -0.28125 0.109375 -0.40625q0.109375 -0.125 0.28125 -0.125q0.171875 0 0.28125 0.125q0.109375 0.125 0.109375 0.40625l0 2.296875z" fill-rule="nonzero"></path><path fill="#000000" fill-opacity="0.0" d="m366.9344 99.755905l94.55118 0l0 42.519684l-94.55118 0z" fill-rule="evenodd"></path><path fill="#000000" d="m388.48877 116.59778l0 -0.25q0 -0.28125 0.109375 -0.40625q0.109375 -0.125 0.28125 -0.125q0.1875 0 0.28125 0.125q0.109375 0.125 0.109375 0.40625l0 1.984375q0 0.265625 -0.109375 0.390625q-0.09375 0.125 -0.28125 0.125q-0.15625 0 -0.265625 -0.109375q-0.109375 -0.109375 -0.125 -0.359375q-0.046875 -0.78125 -0.796875 -1.40625q-0.75 -0.625 -1.984375 -0.625q-1.28125 0 -2.046875 0.671875q-0.765625 0.65625 -0.765625 1.5625q0 0.453125 0.21875 0.84375q0.21875 0.375 0.5625 0.609375q0.359375 0.234375 0.796875 0.390625q0.453125 0.140625 1.390625 0.296875q1.59375 0.25 2.1875 0.53125q0.8125 0.359375 1.21875 1.0q0.421875 0.640625 0.421875 1.515625q0 1.328125 -1.078125 2.28125q-1.0625 0.9375 -2.859375 0.9375q-2.03125 0 -3.25 -1.28125l0 0.453125q0 0.28125 -0.109375 0.40625q-0.109375 0.109375 -0.28125 0.109375q-0.171875 0 -0.28125 -0.109375q-0.109375 -0.125 -0.109375 -0.40625l0 -2.15625q0 -0.28125 0.109375 -0.40625q0.109375 -0.125 0.28125 -0.125q0.15625 0 0.265625 0.109375q0.109375 0.109375 0.125 0.359375q0.046875 0.859375 0.90625 1.5625q0.875 0.703125 2.34375 0.703125q1.453125 0 2.296875 -0.734375q0.859375 -0.734375 0.859375 -1.734375q0 -0.609375 -0.328125 -1.09375q-0.328125 -0.484375 -0.96875 -0.75q-0.4375 -0.203125 -1.84375 -0.4375q-1.9375 -0.328125 -2.796875 -1.0q-0.859375 -0.671875 -0.859375 -1.90625q0 -1.21875 0.984375 -2.09375q0.984375 -0.890625 2.578125 -0.890625q1.640625 0 2.8125 1.03125zm12.38623 0l0 6.515625q0 1.640625 -1.09375 2.765625q-1.09375 1.109375 -2.640625 1.109375q-1.046875 0 -1.859375 -0.453125q-0.796875 -0.46875 -1.359375 -1.390625q-0.5625 -0.921875 -0.5625 -2.03125l0 -6.515625l-0.65625 0q-0.28125 0 -0.40625 -0.09375q-0.125 -0.109375 -0.125 -0.296875q0 -0.171875 0.140625 -0.296875q0.109375 -0.09375 0.390625 -0.09375l2.875 0q0.265625 0 0.390625 0.109375q0.125 0.109375 0.125 0.28125q0 0.1875 -0.125 0.296875q-0.125 0.09375 -0.390625 0.09375l-1.4375 0l0 6.515625q0 1.296875 0.875 2.203125q0.875 0.890625 2.09375 0.890625q0.765625 0 1.390625 -0.34375q0.640625 -0.359375 1.109375 -1.09375q0.484375 -0.734375 0.484375 -1.65625l0 -6.515625l-1.4375 0q-0.265625 0 -0.390625 -0.09375q-0.125 -0.109375 -0.125 -0.296875q0 -0.171875 0.125 -0.28125q0.125 -0.109375 0.390625 -0.109375l2.875 0q0.28125 0 0.40625 0.109375q0.125 0.109375 0.125 0.28125q0 0.1875 -0.125 0.296875q-0.125 0.09375 -0.40625 0.09375l-0.65625 0zm4.3081055 9.296875l0 -9.296875l-1.046875 0q-0.28125 0 -0.40625 -0.09375q-0.109375 -0.109375 -0.109375 -0.296875q0 -0.171875 0.109375 -0.28125q0.125 -0.109375 0.40625 -0.109375l4.890625 0q1.46875 0 2.375 0.84375q0.921875 0.84375 0.921875 1.96875q0 1.4375 -1.53125 2.3125q1.203125 0.4375 1.765625 1.171875q0.578125 0.71875 0.578125 1.578125q0 0.78125 -0.375 1.4375q-0.375 0.640625 -1.140625 1.09375q-0.765625 0.453125 -1.65625 0.453125l-5.828125 0q-0.28125 0 -0.40625 -0.109375q-0.109375 -0.109375 -0.109375 -0.28125q0 -0.171875 0.109375 -0.28125q0.125 -0.109375 0.40625 -0.109375l1.046875 0zm0.78125 -5.25l2.75 0q0.890625 0 1.625 -0.328125q0.5625 -0.25 0.875 -0.734375q0.3125 -0.5 0.3125 -1.015625q0 -0.734375 -0.6875 -1.34375q-0.6875 -0.625 -1.78125 -0.625l-3.09375 0l0 4.046875zm0 5.25l3.9375 0q0.75 0 1.3125 -0.328125q0.5625 -0.34375 0.84375 -0.828125q0.28125 -0.5 0.28125 -1.015625q0 -0.59375 -0.40625 -1.15625q-0.40625 -0.5625 -1.140625 -0.84375q-0.734375 -0.28125 -2.03125 -0.28125l-2.796875 0l0 4.453125zm14.464355 -2.46875l-0.890625 0l-3.0 -6.828125l-0.140625 0l0 9.296875l1.4375 0q0.265625 0 0.390625 0.109375q0.125 0.109375 0.125 0.28125q0 0.171875 -0.125 0.28125q-0.125 0.109375 -0.390625 0.109375l-2.875 0q-0.28125 0 -0.40625 -0.109375q-0.125 -0.109375 -0.125 -0.28125q0 -0.171875 0.125 -0.28125q0.125 -0.109375 0.40625 -0.109375l0.65625 0l0 -9.296875l-0.5 0q-0.28125 0 -0.40625 -0.09375q-0.109375 -0.109375 -0.109375 -0.296875q0 -0.171875 0.109375 -0.28125q0.125 -0.109375 0.40625 -0.109375l1.921875 0l2.9375 6.71875l2.90625 -6.71875l1.90625 0q0.296875 0 0.40625 0.109375q0.125 0.109375 0.125 0.28125q0 0.1875 -0.125 0.296875q-0.109375 0.09375 -0.40625 0.09375l-0.46875 0l0 9.296875l0.640625 0q0.296875 0 0.40625 0.109375q0.125 0.109375 0.125 0.28125q0 0.171875 -0.125 0.28125q-0.109375 0.109375 -0.40625 0.109375l-2.859375 0q-0.28125 0 -0.40625 -0.109375q-0.125 -0.109375 -0.125 -0.28125q0 -0.171875 0.109375 -0.28125q0.125 -0.109375 0.421875 -0.109375l1.4375 0l0 -9.296875l-0.171875 0l-2.9375 6.828125zm11.276855 -6.828125l0 9.296875l2.671875 0q0.28125 0 0.390625 0.109375q0.125 0.109375 0.125 0.28125q0 0.171875 -0.125 0.28125q-0.109375 0.109375 -0.390625 0.109375l-6.125 0q-0.28125 0 -0.40625 -0.109375q-0.109375 -0.109375 -0.109375 -0.28125q0 -0.171875 0.109375 -0.28125q0.125 -0.109375 0.40625 -0.109375l2.671875 0l0 -9.296875l-2.671875 0q-0.28125 0 -0.40625 -0.09375q-0.109375 -0.109375 -0.109375 -0.296875q0 -0.171875 0.109375 -0.28125q0.125 -0.109375 0.40625 -0.109375l6.125 0q0.28125 0 0.390625 0.109375q0.125 0.109375 0.125 0.28125q0 0.1875 -0.125 0.296875q-0.109375 0.09375 -0.390625 0.09375l-2.671875 0zm11.401855 0l0 9.296875l2.015625 0q0.28125 0 0.390625 0.109375q0.125 0.109375 0.125 0.28125q0 0.171875 -0.125 0.28125q-0.109375 0.109375 -0.390625 0.109375l-4.828125 0q-0.28125 0 -0.40625 -0.109375q-0.125 -0.109375 -0.125 -0.28125q0 -0.171875 0.125 -0.28125q0.125 -0.109375 0.40625 -0.109375l2.015625 0l0 -9.296875l-3.1875 0l0 2.703125q0 0.28125 -0.109375 0.40625q-0.109375 0.125 -0.28125 0.125q-0.171875 0 -0.28125 -0.125q-0.109375 -0.125 -0.109375 -0.40625l0 -3.484375l8.734375 0l0 3.484375q0 0.28125 -0.109375 0.40625q-0.109375 0.125 -0.28125 0.125q-0.1875 0 -0.296875 -0.125q-0.09375 -0.125 -0.09375 -0.40625l0 -2.703125l-3.1875 0z" fill-rule="nonzero"></path><path fill="#000000" fill-opacity="0.0" d="m50.010498 181.37007l204.72441 0l0 84.69292l-204.72441 0z" fill-rule="evenodd"></path><path fill="#000000" d="m78.190186 197.77695q0.859375 0 1.6875 0.453125q0.828125 0.4375 1.28125 1.265625q0.46875 0.828125 0.46875 1.71875q0 1.421875 -1.015625 2.4375q-1.0 1.0 -2.421875 1.0q-1.4375 0 -2.453125 -1.0q-1.0 -1.015625 -1.0 -2.4375q0 -0.90625 0.453125 -1.71875q0.46875 -0.828125 1.296875 -1.265625q0.828125 -0.453125 1.703125 -0.453125z" fill-rule="nonzero"></path><path fill="#000000" d="m109.24487 205.07382l0 -7.828125l-0.5625 0q-0.234375 0 -0.34375 -0.09375q-0.09375 -0.09375 -0.09375 -0.234375q0 -0.15625 0.09375 -0.234375q0.109375 -0.09375 0.34375 -0.09375l3.53125 0q0.828125 0 1.515625 0.34375q0.6875 0.34375 1.046875 0.78125q0.609375 0.734375 0.9375 1.5625q0.21875 0.609375 0.21875 1.421875l0 0.90625q0 1.015625 -0.453125 1.96875q-0.4375 0.9375 -1.46875 1.640625q-0.78125 0.515625 -1.796875 0.515625l-3.53125 0q-0.234375 0 -0.34375 -0.09375q-0.09375 -0.09375 -0.09375 -0.234375q0 -0.15625 0.09375 -0.234375q0.109375 -0.09375 0.34375 -0.09375l0.5625 0zm0.65625 0l2.375 0q0.828125 0 1.546875 -0.53125q0.734375 -0.546875 1.09375 -1.296875q0.359375 -0.765625 0.359375 -1.5l0 -1.1875q0 -0.609375 -0.1875 -1.078125q-0.28125 -0.703125 -0.796875 -1.328125q-0.28125 -0.34375 -0.828125 -0.625q-0.546875 -0.28125 -1.1875 -0.28125l-2.375 0l0 7.828125zm15.1796875 -2.71875q0 1.5 -1.078125 2.578125q-1.0625 1.0625 -2.578125 1.0625q-1.53125 0 -2.609375 -1.0625q-1.0625 -1.078125 -1.0625 -2.578125q0 -1.5 1.0625 -2.5625q1.078125 -1.0625 2.609375 -1.0625q1.515625 0 2.578125 1.0625q1.078125 1.0625 1.078125 2.5625zm-0.65625 0q0 -1.234375 -0.890625 -2.09375q-0.875 -0.875 -2.125 -0.875q-1.25 0 -2.125 0.875q-0.875 0.875 -0.875 2.09375q0 1.21875 0.875 2.09375q0.875 0.875 2.125 0.875q1.25 0 2.125 -0.859375q0.890625 -0.875 0.890625 -2.109375zm16.53125 -6.4375l0 9.15625l2.578125 0q0.234375 0 0.328125 0.09375q0.109375 0.078125 0.109375 0.234375q0 0.140625 -0.109375 0.234375q-0.09375 0.09375 -0.328125 0.09375l-5.8125 0q-0.234375 0 -0.34375 -0.09375q-0.09375 -0.09375 -0.09375 -0.234375q0 -0.15625 0.09375 -0.234375q0.109375 -0.09375 0.34375 -0.09375l2.578125 0l0 -8.484375l-1.890625 0q-0.234375 0 -0.34375 -0.09375q-0.109375 -0.09375 -0.109375 -0.25q0 -0.140625 0.09375 -0.234375q0.109375 -0.09375 0.359375 -0.09375l2.546875 0zm11.1484375 9.8125l0 -0.953125q-1.421875 1.21875 -3.046875 1.21875q-1.1875 0 -1.859375 -0.59375q-0.65625 -0.609375 -0.65625 -1.484375q0 -0.953125 0.875 -1.65625q0.875 -0.71875 2.5625 -0.71875q0.453125 0 0.984375 0.0625q0.53125 0.0625 1.140625 0.1875l0 -1.0625q0 -0.546875 -0.5 -0.9375q-0.5 -0.40625 -1.5 -0.40625q-0.765625 0 -2.140625 0.453125q-0.25 0.078125 -0.328125 0.078125q-0.125 0 -0.21875 -0.09375q-0.078125 -0.09375 -0.078125 -0.234375q0 -0.140625 0.078125 -0.21875q0.109375 -0.109375 0.875 -0.3125q1.21875 -0.328125 1.84375 -0.328125q1.25 0 1.9375 0.609375q0.703125 0.609375 0.703125 1.390625l0 4.34375l0.875 0q0.234375 0 0.328125 0.09375q0.109375 0.078125 0.109375 0.234375q0 0.140625 -0.109375 0.234375q-0.09375 0.09375 -0.328125 0.09375l-1.546875 0zm0 -3.265625q-0.453125 -0.140625 -0.96875 -0.203125q-0.515625 -0.0625 -1.09375 -0.0625q-1.421875 0 -2.234375 0.625q-0.609375 0.453125 -0.609375 1.09375q0 0.59375 0.46875 1.0q0.46875 0.40625 1.359375 0.40625q0.84375 0 1.578125 -0.328125q0.734375 -0.34375 1.5 -1.09375l0 -1.4375zm9.9609375 3.265625l0 -0.96875q-1.34375 1.234375 -2.90625 1.234375q-0.953125 0 -1.453125 -0.53125q-0.65625 -0.6875 -0.65625 -1.609375l0 -4.234375l-0.875 0q-0.234375 0 -0.34375 -0.09375q-0.09375 -0.09375 -0.09375 -0.234375q0 -0.140625 0.09375 -0.234375q0.109375 -0.09375 0.34375 -0.09375l1.53125 0l0 4.890625q0 0.640625 0.40625 1.0625q0.40625 0.40625 1.015625 0.40625q1.609375 0 2.9375 -1.46875l0 -4.234375l-1.203125 0q-0.234375 0 -0.34375 -0.09375q-0.09375 -0.09375 -0.09375 -0.234375q0 -0.140625 0.09375 -0.234375q0.109375 -0.09375 0.34375 -0.09375l1.859375 0l0 6.109375l0.5625 0q0.234375 0 0.328125 0.09375q0.109375 0.078125 0.109375 0.234375q0 0.140625 -0.109375 0.234375q-0.09375 0.09375 -0.328125 0.09375l-1.21875 0zm5.2421875 -6.765625l0 0.984375q0.6875 -0.6875 1.234375 -0.953125q0.5625 -0.265625 1.25 -0.265625q0.75 0 1.375 0.3125q0.4375 0.234375 0.78125 0.78125q0.359375 0.546875 0.359375 1.109375l0 4.140625l0.5625 0q0.234375 0 0.328125 0.09375q0.109375 0.078125 0.109375 0.234375q0 0.140625 -0.109375 0.234375q-0.09375 0.09375 -0.328125 0.09375l-1.765625 0q-0.234375 0 -0.34375 -0.09375q-0.09375 -0.09375 -0.09375 -0.234375q0 -0.15625 0.09375 -0.234375q0.109375 -0.09375 0.34375 -0.09375l0.546875 0l0 -4.03125q0 -0.6875 -0.515625 -1.171875q-0.5 -0.484375 -1.34375 -0.484375q-0.65625 0 -1.140625 0.265625q-0.46875 0.265625 -1.34375 1.296875l0 4.125l0.734375 0q0.234375 0 0.328125 0.09375q0.109375 0.078125 0.109375 0.234375q0 0.140625 -0.109375 0.234375q-0.09375 0.09375 -0.328125 0.09375l-2.140625 0q-0.234375 0 -0.34375 -0.09375q-0.09375 -0.09375 -0.09375 -0.234375q0 -0.15625 0.09375 -0.234375q0.109375 -0.09375 0.34375 -0.09375l0.75 0l0 -5.453125l-0.5625 0q-0.234375 0 -0.34375 -0.09375q-0.09375 -0.09375 -0.09375 -0.234375q0 -0.140625 0.09375 -0.234375q0.109375 -0.09375 0.34375 -0.09375l1.21875 0zm14.9296875 -3.046875l0 9.15625l0.875 0q0.25 0 0.34375 0.09375q0.109375 0.078125 0.109375 0.234375q0 0.140625 -0.109375 0.234375q-0.09375 0.09375 -0.34375 0.09375l-1.53125 0l0 -1.3125q-1.140625 1.578125 -2.90625 1.578125q-0.890625 0 -1.703125 -0.46875q-0.8125 -0.484375 -1.296875 -1.359375q-0.46875 -0.875 -0.46875 -1.8125q0 -0.9375 0.46875 -1.796875q0.484375 -0.875 1.296875 -1.34375q0.8125 -0.484375 1.71875 -0.484375q1.71875 0 2.890625 1.5625l0 -3.703125l-0.875 0q-0.25 0 -0.359375 -0.09375q-0.09375 -0.09375 -0.09375 -0.25q0 -0.140625 0.09375 -0.234375q0.109375 -0.09375 0.359375 -0.09375l1.53125 0zm-0.65625 6.4375q0 -1.25 -0.84375 -2.109375q-0.84375 -0.859375 -2.015625 -0.859375q-1.171875 0 -2.015625 0.859375q-0.84375 0.859375 -0.84375 2.109375q0 1.25 0.84375 2.109375q0.84375 0.859375 2.015625 0.859375q1.171875 0 2.015625 -0.859375q0.84375 -0.859375 0.84375 -2.109375zm6.2578125 -3.390625l0 1.65625q1.28125 -1.15625 1.921875 -1.484375q0.640625 -0.34375 1.171875 -0.34375q0.59375 0 1.09375 0.40625q0.5 0.390625 0.5 0.59375q0 0.140625 -0.09375 0.25q-0.09375 0.09375 -0.25 0.09375q-0.078125 0 -0.140625 -0.03125q-0.046875 -0.03125 -0.1875 -0.171875q-0.28125 -0.28125 -0.484375 -0.375q-0.203125 -0.109375 -0.390625 -0.109375q-0.4375 0 -1.046875 0.34375q-0.59375 0.34375 -2.09375 1.6875l0 3.59375l2.90625 0q0.25 0 0.34375 0.09375q0.109375 0.078125 0.109375 0.234375q0 0.140625 -0.109375 0.234375q-0.09375 0.09375 -0.34375 0.09375l-5.140625 0q-0.234375 0 -0.34375 -0.09375q-0.09375 -0.09375 -0.09375 -0.234375q0 -0.125 0.09375 -0.21875q0.09375 -0.09375 0.34375 -0.09375l1.578125 0l0 -5.46875l-1.203125 0q-0.234375 0 -0.34375 -0.09375q-0.09375 -0.09375 -0.09375 -0.234375q0 -0.140625 0.09375 -0.234375q0.09375 -0.09375 0.34375 -0.09375l1.859375 0zm10.4296875 6.765625l-3.046875 -6.109375l-0.1875 0q-0.234375 0 -0.34375 -0.09375q-0.09375 -0.09375 -0.09375 -0.234375q0 -0.09375 0.046875 -0.171875q0.046875 -0.09375 0.125 -0.125q0.09375 -0.03125 0.265625 -0.03125l1.796875 0q0.234375 0 0.328125 0.09375q0.109375 0.09375 0.109375 0.234375q0 0.140625 -0.109375 0.234375q-0.09375 0.09375 -0.328125 0.09375l-0.890625 0l2.6875 5.390625l2.640625 -5.390625l-0.890625 0q-0.234375 0 -0.34375 -0.09375q-0.09375 -0.09375 -0.09375 -0.234375q0 -0.140625 0.09375 -0.234375q0.109375 -0.09375 0.34375 -0.09375l1.796875 0q0.234375 0 0.328125 0.09375q0.109375 0.09375 0.109375 0.234375q0 0.109375 -0.0625 0.203125q-0.0625 0.078125 -0.140625 0.109375q-0.078125 0.015625 -0.4375 0.015625l-4.15625 8.46875l1.03125 0q0.234375 0 0.328125 0.09375q0.109375 0.09375 0.109375 0.234375q0 0.140625 -0.109375 0.234375q-0.09375 0.09375 -0.328125 0.09375l-3.78125 0q-0.234375 0 -0.34375 -0.09375q-0.09375 -0.078125 -0.09375 -0.234375q0 -0.140625 0.09375 -0.234375q0.109375 -0.09375 0.34375 -0.09375l2.046875 0l1.15625 -2.359375z" fill-rule="nonzero"></path><path fill="#000000" d="m73.346436 200.21008l129.67969 0l0 1.4400024l-129.67969 0l0 -1.4400024z" fill-rule="nonzero"></path><path fill="#000000" d="m78.190186 235.77695q0.859375 0 1.6875 0.453125q0.828125 0.4375 1.28125 1.265625q0.46875 0.828125 0.46875 1.71875q0 1.421875 -1.015625 2.4375q-1.0 1.0 -2.421875 1.0q-1.4375 0 -2.453125 -1.0q-1.0 -1.015625 -1.0 -2.4375q0 -0.90625 0.453125 -1.71875q0.46875 -0.828125 1.296875 -1.265625q0.828125 -0.453125 1.703125 -0.453125z" fill-rule="nonzero"></path><path fill="#000000" d="m109.68237 239.3082l0 3.765625l5.046875 0l0 -1.9375q0 -0.234375 0.078125 -0.328125q0.09375 -0.109375 0.25 -0.109375q0.140625 0 0.234375 0.109375q0.09375 0.09375 0.09375 0.328125l0 2.59375l-7.25 0q-0.234375 0 -0.34375 -0.09375q-0.09375 -0.09375 -0.09375 -0.234375q0 -0.15625 0.09375 -0.234375q0.109375 -0.09375 0.34375 -0.09375l0.890625 0l0 -7.828125l-0.890625 0q-0.234375 0 -0.34375 -0.09375q-0.09375 -0.09375 -0.09375 -0.234375q0 -0.15625 0.09375 -0.234375q0.109375 -0.09375 0.34375 -0.09375l6.90625 0l0 2.25q0 0.234375 -0.09375 0.34375q-0.09375 0.09375 -0.234375 0.09375q-0.15625 0 -0.25 -0.09375q-0.078125 -0.109375 -0.078125 -0.34375l0 -1.59375l-4.703125 0l0 3.40625l2.34375 0l0 -0.734375q0 -0.234375 0.09375 -0.328125q0.09375 -0.109375 0.25 -0.109375q0.140625 0 0.234375 0.109375q0.09375 0.09375 0.09375 0.328125l0 2.140625q0 0.234375 -0.09375 0.34375q-0.09375 0.09375 -0.234375 0.09375q-0.15625 0 -0.25 -0.09375q-0.09375 -0.109375 -0.09375 -0.34375l0 -0.75l-2.34375 0zm13.6171875 4.421875l0 -0.953125q-1.421875 1.21875 -3.046875 1.21875q-1.1875 0 -1.859375 -0.59375q-0.65625 -0.609375 -0.65625 -1.484375q0 -0.953125 0.875 -1.65625q0.875 -0.71875 2.5625 -0.71875q0.453125 0 0.984375 0.0625q0.53125 0.0625 1.140625 0.1875l0 -1.0625q0 -0.546875 -0.5 -0.9375q-0.5 -0.40625 -1.5 -0.40625q-0.765625 0 -2.140625 0.453125q-0.25 0.078125 -0.328125 0.078125q-0.125 0 -0.21875 -0.09375q-0.078125 -0.09375 -0.078125 -0.234375q0 -0.140625 0.078125 -0.21875q0.109375 -0.109375 0.875 -0.3125q1.21875 -0.328125 1.84375 -0.328125q1.25 0 1.9375 0.609375q0.703125 0.609375 0.703125 1.390625l0 4.34375l0.875 0q0.234375 0 0.328125 0.09375q0.109375 0.078125 0.109375 0.234375q0 0.140625 -0.109375 0.234375q-0.09375 0.09375 -0.328125 0.09375l-1.546875 0zm0 -3.265625q-0.453125 -0.140625 -0.96875 -0.203125q-0.515625 -0.0625 -1.09375 -0.0625q-1.421875 0 -2.234375 0.625q-0.609375 0.453125 -0.609375 1.09375q0 0.59375 0.46875 1.0q0.46875 0.40625 1.359375 0.40625q0.84375 0 1.578125 -0.328125q0.734375 -0.34375 1.5 -1.09375l0 -1.4375zm6.3671875 -3.5l3.5625 0q0.234375 0 0.328125 0.09375q0.109375 0.09375 0.109375 0.234375q0 0.140625 -0.109375 0.234375q-0.09375 0.09375 -0.328125 0.09375l-3.5625 0l0 4.375q0 0.5625 0.453125 0.953125q0.46875 0.375 1.34375 0.375q0.671875 0 1.4375 -0.1875q0.78125 -0.203125 1.203125 -0.453125q0.15625 -0.109375 0.265625 -0.109375q0.125 0 0.21875 0.109375q0.09375 0.09375 0.09375 0.21875q0 0.125 -0.109375 0.21875q-0.25 0.265625 -1.21875 0.578125q-0.953125 0.296875 -1.84375 0.296875q-1.140625 0 -1.828125 -0.546875q-0.671875 -0.546875 -0.671875 -1.453125l0 -4.375l-1.21875 0q-0.234375 0 -0.34375 -0.09375q-0.09375 -0.09375 -0.09375 -0.234375q0 -0.140625 0.09375 -0.234375q0.109375 -0.09375 0.34375 -0.09375l1.21875 0l0 -1.9375q0 -0.234375 0.09375 -0.328125q0.09375 -0.109375 0.234375 -0.109375q0.140625 0 0.234375 0.109375q0.09375 0.09375 0.09375 0.328125l0 1.9375zm23.296875 0.65625l0 -0.21875q0 -0.234375 0.09375 -0.328125q0.09375 -0.109375 0.234375 -0.109375q0.140625 0 0.234375 0.109375q0.09375 0.09375 0.09375 0.328125l0 1.484375q0 0.25 -0.09375 0.359375q-0.09375 0.09375 -0.234375 0.09375q-0.140625 0 -0.234375 -0.09375q-0.078125 -0.09375 -0.09375 -0.296875q-0.046875 -0.5625 -0.734375 -1.0625q-0.6875 -0.5 -1.84375 -0.5q-1.453125 0 -2.21875 0.921875q-0.75 0.90625 -0.75 2.09375q0 1.265625 0.828125 2.09375q0.84375 0.828125 2.171875 0.828125q0.765625 0 1.546875 -0.28125q0.796875 -0.28125 1.4375 -0.90625q0.171875 -0.15625 0.296875 -0.15625q0.125 0 0.21875 0.09375q0.09375 0.09375 0.09375 0.21875q0 0.34375 -0.796875 0.859375q-1.265625 0.84375 -2.828125 0.84375q-1.59375 0 -2.609375 -1.015625q-1.015625 -1.015625 -1.015625 -2.578125q0 -1.578125 1.03125 -2.625q1.046875 -1.046875 2.640625 -1.046875q1.5 0 2.53125 0.890625zm8.7421875 6.109375l0 -0.953125q-1.421875 1.21875 -3.046875 1.21875q-1.1875 0 -1.859375 -0.59375q-0.65625 -0.609375 -0.65625 -1.484375q0 -0.953125 0.875 -1.65625q0.875 -0.71875 2.5625 -0.71875q0.453125 0 0.984375 0.0625q0.53125 0.0625 1.140625 0.1875l0 -1.0625q0 -0.546875 -0.5 -0.9375q-0.5 -0.40625 -1.5 -0.40625q-0.765625 0 -2.140625 0.453125q-0.25 0.078125 -0.328125 0.078125q-0.125 0 -0.21875 -0.09375q-0.078125 -0.09375 -0.078125 -0.234375q0 -0.140625 0.078125 -0.21875q0.109375 -0.109375 0.875 -0.3125q1.21875 -0.328125 1.84375 -0.328125q1.25 0 1.9375 0.609375q0.703125 0.609375 0.703125 1.390625l0 4.34375l0.875 0q0.234375 0 0.328125 0.09375q0.109375 0.078125 0.109375 0.234375q0 0.140625 -0.109375 0.234375q-0.09375 0.09375 -0.328125 0.09375l-1.546875 0zm0 -3.265625q-0.453125 -0.140625 -0.96875 -0.203125q-0.515625 -0.0625 -1.09375 -0.0625q-1.421875 0 -2.234375 0.625q-0.609375 0.453125 -0.609375 1.09375q0 0.59375 0.46875 1.0q0.46875 0.40625 1.359375 0.40625q0.84375 0 1.578125 -0.328125q0.734375 -0.34375 1.5 -1.09375l0 -1.4375zm6.3828125 0.34375l0 2.921875l-1.53125 0q-0.234375 0 -0.34375 -0.09375q-0.09375 -0.09375 -0.09375 -0.234375q0 -0.15625 0.09375 -0.234375q0.109375 -0.09375 0.34375 -0.09375l0.875 0l0 -8.484375l-0.875 0q-0.234375 0 -0.34375 -0.09375q-0.09375 -0.09375 -0.09375 -0.25q0 -0.140625 0.09375 -0.234375q0.109375 -0.09375 0.34375 -0.09375l1.53125 0l0 6.046875l2.796875 -2.34375l-0.34375 0q-0.234375 0 -0.34375 -0.09375q-0.09375 -0.09375 -0.09375 -0.234375q0 -0.140625 0.09375 -0.234375q0.109375 -0.09375 0.34375 -0.09375l2.109375 0q0.234375 0 0.328125 0.09375q0.109375 0.09375 0.109375 0.234375q0 0.140625 -0.109375 0.234375q-0.09375 0.09375 -0.328125 0.09375l-0.765625 0l-2.5625 2.140625l3.25 3.3125l0.75 0q0.25 0 0.34375 0.09375q0.109375 0.078125 0.109375 0.234375q0 0.140625 -0.109375 0.234375q-0.09375 0.09375 -0.34375 0.09375l-2.125 0q-0.234375 0 -0.34375 -0.09375q-0.09375 -0.09375 -0.09375 -0.234375q0 -0.15625 0.09375 -0.234375q0.109375 -0.09375 0.34375 -0.09375l0.46875 0l-2.828125 -2.90625l-0.75 0.640625zm14.4921875 -0.3125l-6.6875 0q0.171875 1.28125 1.0625 2.0625q0.890625 0.765625 2.21875 0.765625q0.734375 0 1.53125 -0.234375q0.8125 -0.25 1.3125 -0.640625q0.15625 -0.125 0.265625 -0.125q0.125 0 0.21875 0.109375q0.09375 0.09375 0.09375 0.21875q0 0.140625 -0.125 0.265625q-0.375 0.390625 -1.34375 0.734375q-0.953125 0.34375 -1.953125 0.34375q-1.6875 0 -2.828125 -1.109375q-1.125 -1.109375 -1.125 -2.6875q0 -1.421875 1.0625 -2.4375q1.0625 -1.03125 2.625 -1.03125q1.609375 0 2.640625 1.046875q1.046875 1.046875 1.03125 2.71875zm-0.671875 -0.65625q-0.1875 -1.09375 -1.03125 -1.765625q-0.828125 -0.6875 -1.96875 -0.6875q-1.15625 0 -1.984375 0.671875q-0.828125 0.671875 -1.03125 1.78125l6.015625 0z" fill-rule="nonzero"></path><path fill="#000000" d="m73.346436 238.21008l110.47656 0l0 1.4400024l-110.47656 0l0 -1.4400024z" fill-rule="nonzero"></path><path fill="#000000" fill-opacity="0.0" d="m54.650917 161.37016l0 0c0 -2.2091827 1.7908974 -4.0000916 4.00008 -4.0000916l86.551025 0c1.0608826 0 2.0783234 0.42144775 2.828476 1.1716003c0.75016785 0.75016785 1.1716003 1.7675934 1.1716003 2.8284912l0 15.999832c0 2.2091827 -1.7908936 4.0000763 -4.0000763 4.0000763l-86.551025 0c-2.2091827 0 -4.00008 -1.7908936 -4.00008 -4.0000763z" fill-rule="evenodd"></path><path stroke="#000000" stroke-width="1.0" stroke-linejoin="round" stroke-linecap="butt" d="m54.650917 161.37016l0 0c0 -2.2091827 1.7908974 -4.0000916 4.00008 -4.0000916l86.551025 0c1.0608826 0 2.0783234 0.42144775 2.828476 1.1716003c0.75016785 0.75016785 1.1716003 1.7675934 1.1716003 2.8284912l0 15.999832c0 2.2091827 -1.7908936 4.0000763 -4.0000763 4.0000763l-86.551025 0c-2.2091827 0 -4.00008 -1.7908936 -4.00008 -4.0000763z" fill-rule="evenodd"></path><path fill="#d9d9d9" d="m162.6483 161.37016l0 0c0 -2.2091827 1.7908936 -4.0000916 4.0000763 -4.0000916l86.551025 0c1.0608826 0 2.0783234 0.42144775 2.8284912 1.1716003c0.7501526 0.75016785 1.1715698 1.7675934 1.1715698 2.8284912l0 15.999832c0 2.2091827 -1.7908783 4.0000763 -4.000061 4.0000763l-86.551025 0c-2.2091827 0 -4.0000763 -1.7908936 -4.0000763 -4.0000763z" fill-rule="evenodd"></path><path stroke="#000000" stroke-width="1.0" stroke-linejoin="round" stroke-linecap="butt" d="m162.6483 161.37016l0 0c0 -2.2091827 1.7908936 -4.0000916 4.0000763 -4.0000916l86.551025 0c1.0608826 0 2.0783234 0.42144775 2.8284912 1.1716003c0.7501526 0.75016785 1.1715698 1.7675934 1.1715698 2.8284912l0 15.999832c0 2.2091827 -1.7908783 4.0000763 -4.000061 4.0000763l-86.551025 0c-2.2091827 0 -4.0000763 -1.7908936 -4.0000763 -4.0000763z" fill-rule="evenodd"></path><path fill="#000000" fill-opacity="0.0" d="m54.650917 150.81496l94.551186 0l0 22.015747l-94.551186 0z" fill-rule="evenodd"></path><path fill="#000000" d="m86.59521 165.72433l0 6.359375l1.375 0q0.1875 0 0.265625 0.078125q0.09375 0.0625 0.09375 0.1875q0 0.109375 -0.09375 0.1875q-0.078125 0.078125 -0.265625 0.078125l-3.3125 0q-0.1875 0 -0.265625 -0.078125q-0.078125 -0.078125 -0.078125 -0.1875q0 -0.125 0.078125 -0.1875q0.078125 -0.078125 0.265625 -0.078125l1.390625 0l0 -6.359375l-2.1875 0l0 1.84375q0 0.203125 -0.078125 0.28125q-0.0625 0.078125 -0.1875 0.078125q-0.109375 0 -0.1875 -0.078125q-0.078125 -0.078125 -0.078125 -0.28125l0 -2.375l5.96875 0l0 2.375q0 0.203125 -0.078125 0.28125q-0.0625 0.078125 -0.1875 0.078125q-0.109375 0 -0.1875 -0.078125q-0.078125 -0.078125 -0.078125 -0.28125l0 -1.84375l-2.171875 0zm10.504395 4.15625q0 1.21875 -0.875 2.078125q-0.859375 0.859375 -2.09375 0.859375q-1.25 0 -2.125 -0.859375q-0.859375 -0.875 -0.859375 -2.078125q0 -1.21875 0.859375 -2.078125q0.875 -0.875 2.125 -0.875q1.234375 0 2.09375 0.859375q0.875 0.859375 0.875 2.09375zm-0.53125 0q0 -1.0 -0.71875 -1.703125q-0.71875 -0.703125 -1.734375 -0.703125q-1.015625 0 -1.734375 0.703125q-0.703125 0.703125 -0.703125 1.703125q0 0.984375 0.703125 1.703125q0.71875 0.703125 1.734375 0.703125q1.015625 0 1.734375 -0.703125q0.71875 -0.703125 0.71875 -1.703125zm11.071289 2.203125l0 -6.359375l-0.453125 0q-0.1875 0 -0.28125 -0.078125q-0.078125 -0.078125 -0.078125 -0.1875q0 -0.125 0.078125 -0.1875q0.09375 -0.078125 0.28125 -0.078125l2.875 0q0.671875 0 1.21875 0.28125q0.5625 0.265625 0.84375 0.625q0.515625 0.609375 0.765625 1.28125q0.1875 0.484375 0.1875 1.15625l0 0.734375q0 0.8125 -0.359375 1.59375q-0.359375 0.765625 -1.203125 1.328125q-0.640625 0.421875 -1.453125 0.421875l-2.875 0q-0.1875 0 -0.28125 -0.078125q-0.078125 -0.078125 -0.078125 -0.1875q0 -0.125 0.078125 -0.1875q0.09375 -0.078125 0.28125 -0.078125l0.453125 0zm0.53125 0l1.9375 0q0.671875 0 1.25 -0.4375q0.59375 -0.4375 0.890625 -1.046875q0.296875 -0.625 0.296875 -1.21875l0 -0.96875q0 -0.484375 -0.15625 -0.875q-0.234375 -0.5625 -0.65625 -1.078125q-0.21875 -0.28125 -0.671875 -0.5q-0.4375 -0.234375 -0.953125 -0.234375l-1.9375 0l0 6.359375zm12.33252 -2.203125q0 1.21875 -0.875 2.078125q-0.859375 0.859375 -2.09375 0.859375q-1.25 0 -2.125 -0.859375q-0.859375 -0.875 -0.859375 -2.078125q0 -1.21875 0.859375 -2.078125q0.875 -0.875 2.125 -0.875q1.234375 0 2.09375 0.859375q0.875 0.859375 0.875 2.09375zm-0.53125 0q0 -1.0 -0.71875 -1.703125q-0.71875 -0.703125 -1.734375 -0.703125q-1.015625 0 -1.734375 0.703125q-0.703125 0.703125 -0.703125 1.703125q0 0.984375 0.703125 1.703125q0.71875 0.703125 1.734375 0.703125q1.015625 0 1.734375 -0.703125q0.71875 -0.703125 0.71875 -1.703125z" fill-rule="nonzero"></path><path fill="#000000" fill-opacity="0.0" d="m164.56955 150.81496l90.708664 0l0 22.015747l-90.708664 0z" fill-rule="evenodd"></path><path fill="#000000" d="m179.33517 165.14746l0 -0.34375q0 -0.171875 0.0625 -0.25q0.078125 -0.078125 0.1875 -0.078125q0.109375 0 0.171875 0.078125q0.078125 0.078125 0.078125 0.25l0 1.375q0 0.171875 -0.078125 0.25q-0.0625 0.078125 -0.171875 0.078125q-0.109375 0 -0.171875 -0.0625q-0.0625 -0.078125 -0.078125 -0.234375q-0.03125 -0.5 -0.53125 -0.875q-0.6875 -0.515625 -1.546875 -0.515625q-0.5625 0 -1.078125 0.25q-0.375 0.171875 -0.59375 0.4375q-0.390625 0.453125 -0.609375 1.015625q-0.171875 0.40625 -0.171875 0.921875l0 0.859375q0 1.109375 0.796875 1.921875q0.796875 0.8125 1.859375 0.8125q0.625 0 1.125 -0.265625q0.5 -0.28125 0.96875 -0.84375q0.109375 -0.125 0.234375 -0.125q0.09375 0 0.15625 0.0625q0.078125 0.0625 0.078125 0.171875q0 0.125 -0.265625 0.40625q-0.46875 0.53125 -1.078125 0.8125q-0.59375 0.265625 -1.21875 0.265625q-0.53125 0 -1.078125 -0.203125q-0.421875 -0.15625 -0.703125 -0.359375q-0.265625 -0.21875 -0.671875 -0.71875q-0.40625 -0.5 -0.546875 -0.921875q-0.140625 -0.421875 -0.140625 -0.9375l0 -1.0q0 -0.734375 0.390625 -1.484375q0.390625 -0.765625 1.0625 -1.171875q0.671875 -0.40625 1.46875 -0.40625q1.21875 0 2.09375 0.828125zm7.794922 3.65625q0 1.125 -0.8125 1.921875q-0.8125 0.796875 -1.9375 0.796875q-1.15625 0 -1.96875 -0.796875q-0.796875 -0.796875 -0.796875 -1.921875q0 -1.125 0.796875 -1.921875q0.8125 -0.796875 1.96875 -0.796875q1.125 0 1.9375 0.796875q0.8125 0.796875 0.8125 1.921875zm-0.5 0q0 -0.921875 -0.671875 -1.5625q-0.65625 -0.65625 -1.59375 -0.65625q-0.9375 0 -1.59375 0.65625q-0.65625 0.640625 -0.65625 1.5625q0 0.921875 0.65625 1.578125q0.65625 0.65625 1.59375 0.65625q0.9375 0 1.59375 -0.65625q0.671875 -0.65625 0.671875 -1.578125zm2.7011719 -2.546875l0 0.5q0.625 -0.671875 1.265625 -0.671875q0.375 0 0.65625 0.203125q0.296875 0.203125 0.484375 0.609375q0.328125 -0.40625 0.65625 -0.609375q0.34375 -0.203125 0.6875 -0.203125q0.53125 0 0.84375 0.34375q0.421875 0.453125 0.421875 0.96875l0 3.4375l0.421875 0q0.171875 0 0.25 0.078125q0.078125 0.0625 0.078125 0.171875q0 0.109375 -0.078125 0.1875q-0.078125 0.0625 -0.25 0.0625l-0.90625 0l0 -3.890625q0 -0.375 -0.234375 -0.609375q-0.234375 -0.25 -0.53125 -0.25q-0.265625 0 -0.5625 0.203125q-0.296875 0.203125 -0.6875 0.796875l0 3.25l0.421875 0q0.171875 0 0.25 0.078125q0.078125 0.0625 0.078125 0.171875q0 0.109375 -0.078125 0.1875q-0.078125 0.0625 -0.25 0.0625l-0.921875 0l0 -3.84375q0 -0.40625 -0.234375 -0.65625q-0.21875 -0.25 -0.515625 -0.25q-0.25 0 -0.515625 0.171875q-0.359375 0.234375 -0.75 0.828125l0 3.25l0.421875 0q0.171875 0 0.25 0.078125q0.078125 0.0625 0.078125 0.171875q0 0.109375 -0.078125 0.1875q-0.078125 0.0625 -0.25 0.0625l-1.328125 0q-0.171875 0 -0.25 -0.0625q-0.078125 -0.078125 -0.078125 -0.1875q0 -0.109375 0.078125 -0.171875q0.078125 -0.078125 0.25 -0.078125l0.421875 0l0 -4.078125l-0.421875 0q-0.171875 0 -0.25 -0.0625q-0.078125 -0.078125 -0.078125 -0.1875q0 -0.109375 0.078125 -0.171875q0.078125 -0.078125 0.25 -0.078125l0.90625 0zm7.591797 0l0 0.90625q0.4375 -0.546875 0.9375 -0.8125q0.5 -0.265625 1.1875 -0.265625q0.734375 0 1.34375 0.34375q0.625 0.328125 0.953125 0.9375q0.34375 0.609375 0.34375 1.28125q0 1.0625 -0.765625 1.8125q-0.75 0.75 -1.859375 0.75q-1.328125 0 -2.140625 -1.078125l0 2.96875l1.1875 0q0.1875 0 0.25 0.0625q0.078125 0.078125 0.078125 0.1875q0 0.109375 -0.078125 0.171875q-0.0625 0.078125 -0.25 0.078125l-2.34375 0q-0.171875 0 -0.25 -0.078125q-0.078125 -0.0625 -0.078125 -0.171875q0 -0.109375 0.078125 -0.1875q0.078125 -0.0625 0.25 -0.0625l0.65625 0l0 -6.34375l-0.65625 0q-0.171875 0 -0.25 -0.0625q-0.078125 -0.078125 -0.078125 -0.1875q0 -0.109375 0.078125 -0.171875q0.078125 -0.078125 0.25 -0.078125l1.15625 0zm4.265625 2.390625q0 -0.859375 -0.625 -1.453125q-0.609375 -0.609375 -1.5 -0.609375q-0.90625 0 -1.53125 0.609375q-0.609375 0.609375 -0.609375 1.453125q0 0.84375 0.609375 1.453125q0.625 0.609375 1.53125 0.609375q0.875 0 1.5 -0.59375q0.625 -0.609375 0.625 -1.46875zm5.029297 -4.671875l0 6.859375l1.9375 0q0.1875 0 0.265625 0.078125q0.078125 0.0625 0.078125 0.171875q0 0.109375 -0.078125 0.1875q-0.078125 0.0625 -0.265625 0.0625l-4.359375 0q-0.171875 0 -0.25 -0.0625q-0.078125 -0.078125 -0.078125 -0.1875q0 -0.109375 0.078125 -0.171875q0.078125 -0.078125 0.25 -0.078125l1.9375 0l0 -6.359375l-1.421875 0q-0.171875 0 -0.25 -0.0625q-0.078125 -0.078125 -0.078125 -0.1875q0 -0.109375 0.078125 -0.171875q0.078125 -0.078125 0.25 -0.078125l1.90625 0zm9.623047 4.9375l-5.015625 0q0.125 0.953125 0.796875 1.546875q0.671875 0.578125 1.65625 0.578125q0.5625 0 1.15625 -0.171875q0.609375 -0.1875 0.984375 -0.5q0.109375 -0.078125 0.203125 -0.078125q0.09375 0 0.15625 0.078125q0.078125 0.0625 0.078125 0.171875q0 0.09375 -0.09375 0.1875q-0.28125 0.296875 -1.0 0.546875q-0.71875 0.25 -1.484375 0.25q-1.265625 0 -2.109375 -0.828125q-0.84375 -0.828125 -0.84375 -2.0q0 -1.078125 0.796875 -1.84375q0.796875 -0.765625 1.96875 -0.765625q1.203125 0 1.984375 0.796875q0.78125 0.78125 0.765625 2.03125zm-0.5 -0.5q-0.140625 -0.8125 -0.765625 -1.3125q-0.625 -0.515625 -1.484375 -0.515625q-0.859375 0 -1.484375 0.5q-0.625 0.5 -0.78125 1.328125l4.515625 0zm4.029297 -2.15625l2.671875 0q0.171875 0 0.25 0.078125q0.078125 0.0625 0.078125 0.171875q0 0.109375 -0.078125 0.1875q-0.078125 0.0625 -0.25 0.0625l-2.671875 0l0 3.28125q0 0.421875 0.34375 0.71875q0.34375 0.28125 1.0 0.28125q0.5 0 1.078125 -0.140625q0.578125 -0.15625 0.90625 -0.34375q0.109375 -0.078125 0.1875 -0.078125q0.09375 0 0.15625 0.078125q0.078125 0.0625 0.078125 0.171875q0 0.078125 -0.078125 0.15625q-0.1875 0.1875 -0.90625 0.421875q-0.71875 0.21875 -1.390625 0.21875q-0.859375 0 -1.375 -0.390625q-0.5 -0.40625 -0.5 -1.09375l0 -3.28125l-0.90625 0q-0.171875 0 -0.25 -0.0625q-0.078125 -0.078125 -0.078125 -0.1875q0 -0.109375 0.078125 -0.171875q0.078125 -0.078125 0.25 -0.078125l0.90625 0l0 -1.453125q0 -0.171875 0.0625 -0.25q0.078125 -0.078125 0.1875 -0.078125q0.109375 0 0.171875 0.078125q0.078125 0.078125 0.078125 0.25l0 1.453125zm10.873047 2.65625l-5.015625 0q0.125 0.953125 0.796875 1.546875q0.671875 0.578125 1.65625 0.578125q0.5625 0 1.15625 -0.171875q0.609375 -0.1875 0.984375 -0.5q0.109375 -0.078125 0.203125 -0.078125q0.09375 0 0.15625 0.078125q0.078125 0.0625 0.078125 0.171875q0 0.09375 -0.09375 0.1875q-0.28125 0.296875 -1.0 0.546875q-0.71875 0.25 -1.484375 0.25q-1.265625 0 -2.109375 -0.828125q-0.84375 -0.828125 -0.84375 -2.0q0 -1.078125 0.796875 -1.84375q0.796875 -0.765625 1.96875 -0.765625q1.203125 0 1.984375 0.796875q0.78125 0.78125 0.765625 2.03125zm-0.5 -0.5q-0.140625 -0.8125 -0.765625 -1.3125q-0.625 -0.515625 -1.484375 -0.515625q-0.859375 0 -1.484375 0.5q-0.625 0.5 -0.78125 1.328125l4.515625 0zm7.451172 -4.4375l0 6.859375l0.65625 0q0.171875 0 0.25 0.078125q0.078125 0.0625 0.078125 0.171875q0 0.109375 -0.078125 0.1875q-0.078125 0.0625 -0.25 0.0625l-1.15625 0l0 -0.984375q-0.859375 1.171875 -2.171875 1.171875q-0.671875 0 -1.28125 -0.34375q-0.609375 -0.359375 -0.96875 -1.015625q-0.359375 -0.65625 -0.359375 -1.359375q0 -0.703125 0.359375 -1.34375q0.359375 -0.65625 0.96875 -1.015625q0.609375 -0.359375 1.28125 -0.359375q1.296875 0 2.171875 1.171875l0 -2.78125l-0.65625 0q-0.1875 0 -0.265625 -0.0625q-0.0625 -0.078125 -0.0625 -0.1875q0 -0.109375 0.0625 -0.171875q0.078125 -0.078125 0.265625 -0.078125l1.15625 0zm-0.5 4.828125q0 -0.9375 -0.640625 -1.578125q-0.625 -0.640625 -1.5 -0.640625q-0.875 0 -1.515625 0.640625q-0.625 0.640625 -0.625 1.578125q0 0.9375 0.625 1.59375q0.640625 0.640625 1.515625 0.640625q0.875 0 1.5 -0.640625q0.640625 -0.65625 0.640625 -1.59375z" fill-rule="nonzero"></path><path fill="#000000" fill-opacity="0.0" d="m231.4147 193.13264l0 0c0 -2.693344 2.1833801 -4.8767395 4.8767395 -4.8767395l133.71109 0c1.293396 0 2.5338135 0.51379395 3.4483643 1.42836c0.9145813 0.91456604 1.4283752 2.1549835 1.4283752 3.4483795l0 19.506363c0 2.693344 -2.1834106 4.8767395 -4.8767395 4.8767395l-133.71109 0l0 0c-2.6933594 0 -4.8767395 -2.1833954 -4.8767395 -4.8767395z" fill-rule="evenodd"></path><path stroke="#000000" stroke-width="1.0" stroke-linejoin="round" stroke-linecap="butt" d="m231.4147 193.13264l0 0c0 -2.693344 2.1833801 -4.8767395 4.8767395 -4.8767395l133.71109 0c1.293396 0 2.5338135 0.51379395 3.4483643 1.42836c0.9145813 0.91456604 1.4283752 2.1549835 1.4283752 3.4483795l0 19.506363c0 2.693344 -2.1834106 4.8767395 -4.8767395 4.8767395l-133.71109 0l0 0c-2.6933594 0 -4.8767395 -2.1833954 -4.8767395 -4.8767395z" fill-rule="evenodd"></path><path fill="#000000" d="m248.88747 205.45145l-0.609375 0l-2.046875 -4.65625l-0.109375 0l0 6.359375l0.984375 0q0.203125 0 0.28125 0.078125q0.078125 0.0625 0.078125 0.1875q0 0.109375 -0.078125 0.1875q-0.078125 0.078125 -0.28125 0.078125l-1.953125 0q-0.203125 0 -0.28125 -0.078125q-0.078125 -0.078125 -0.078125 -0.1875q0 -0.125 0.078125 -0.1875q0.078125 -0.078125 0.28125 -0.078125l0.4375 0l0 -6.359375l-0.328125 0q-0.1875 0 -0.28125 -0.078125q-0.078125 -0.078125 -0.078125 -0.1875q0 -0.125 0.078125 -0.1875q0.09375 -0.078125 0.28125 -0.078125l1.3125 0l2.015625 4.59375l1.984375 -4.59375l1.3125 0q0.1875 0 0.265625 0.078125q0.09375 0.0625 0.09375 0.1875q0 0.109375 -0.09375 0.1875q-0.078125 0.078125 -0.265625 0.078125l-0.34375 0l0 6.359375l0.453125 0q0.1875 0 0.265625 0.078125q0.09375 0.0625 0.09375 0.1875q0 0.109375 -0.09375 0.1875q-0.078125 0.078125 -0.265625 0.078125l-1.96875 0q-0.1875 0 -0.28125 -0.078125q-0.078125 -0.078125 -0.078125 -0.1875q0 -0.125 0.078125 -0.1875q0.09375 -0.078125 0.28125 -0.078125l0.984375 0l0 -6.359375l-0.109375 0l-2.015625 4.65625zm8.988754 2.234375l0 -0.765625q-1.171875 0.96875 -2.4843597 0.96875q-0.953125 0 -1.5 -0.484375q-0.53125 -0.484375 -0.53125 -1.1875q0 -0.765625 0.703125 -1.34375q0.71875 -0.578125 2.0781097 -0.578125q0.359375 0 0.796875 0.046875q0.4375 0.046875 0.9375 0.140625l0 -0.859375q0 -0.4375 -0.40625 -0.75q-0.40625 -0.328125 -1.21875 -0.328125q-0.62498474 0 -1.7499847 0.359375q-0.203125 0.0625 -0.265625 0.0625q-0.09375 0 -0.171875 -0.078125q-0.0625 -0.078125 -0.0625 -0.1875q0 -0.109375 0.0625 -0.171875q0.078125 -0.09375 0.71875 -0.265625q0.984375 -0.265625 1.4843597 -0.265625q1.015625 0 1.578125 0.5q0.5625 0.5 0.5625 1.125l0 3.53125l0.71875 0q0.1875 0 0.265625 0.078125q0.09375 0.0625 0.09375 0.1875q0 0.109375 -0.09375 0.1875q-0.078125 0.078125 -0.265625 0.078125l-1.25 0zm0 -2.65625q-0.375 -0.109375 -0.796875 -0.15625q-0.421875 -0.046875 -0.875 -0.046875q-1.1718597 0 -1.8281097 0.5q-0.484375 0.375 -0.484375 0.890625q0 0.484375 0.375 0.8125q0.375 0.328125 1.09375 0.328125q0.70310974 0 1.2968597 -0.265625q0.59375 -0.28125 1.21875 -0.890625l0 -1.171875zm5.6293945 -2.84375l0 1.34375q1.03125 -0.9375 1.546875 -1.203125q0.53125 -0.265625 0.96875 -0.265625q0.46875 0 0.875 0.328125q0.421875 0.3125 0.421875 0.46875q0 0.125 -0.09375 0.203125q-0.078125 0.078125 -0.1875 0.078125q-0.0625 0 -0.109375 -0.015625q-0.046875 -0.03125 -0.171875 -0.140625q-0.21875 -0.234375 -0.390625 -0.3125q-0.15625 -0.078125 -0.3125 -0.078125q-0.359375 0 -0.859375 0.28125q-0.484375 0.28125 -1.6875 1.359375l0 2.921875l2.359375 0q0.203125 0 0.28125 0.078125q0.078125 0.0625 0.078125 0.1875q0 0.109375 -0.078125 0.1875q-0.078125 0.078125 -0.28125 0.078125l-4.1875 0q-0.1875 0 -0.28125 -0.0625q-0.078125 -0.078125 -0.078125 -0.203125q0 -0.109375 0.078125 -0.171875q0.09375 -0.078125 0.28125 -0.078125l1.296875 0l0 -4.4375l-0.984375 0q-0.1875 0 -0.28125 -0.078125q-0.078125 -0.078125 -0.078125 -0.203125q0 -0.109375 0.078125 -0.1875q0.078125 -0.078125 0.28125 -0.078125l1.515625 0zm7.3481445 3.125l0 2.375l-1.25 0q-0.1875 0 -0.265625 -0.078125q-0.078125 -0.078125 -0.078125 -0.1875q0 -0.125 0.078125 -0.1875q0.078125 -0.078125 0.265625 -0.078125l0.71875 0l0 -6.890625l-0.71875 0q-0.1875 0 -0.265625 -0.078125q-0.078125 -0.078125 -0.078125 -0.203125q0 -0.109375 0.078125 -0.1875q0.078125 -0.078125 0.265625 -0.078125l1.25 0l0 4.921875l2.265625 -1.90625l-0.265625 0q-0.1875 0 -0.28125 -0.078125q-0.078125 -0.078125 -0.078125 -0.1875q0 -0.125 0.078125 -0.203125q0.09375 -0.078125 0.28125 -0.078125l1.703125 0q0.203125 0 0.28125 0.078125q0.078125 0.078125 0.078125 0.203125q0 0.109375 -0.078125 0.1875q-0.078125 0.078125 -0.28125 0.078125l-0.609375 0l-2.078125 1.734375l2.625 2.6875l0.625 0q0.1875 0 0.265625 0.078125q0.09375 0.0625 0.09375 0.1875q0 0.109375 -0.09375 0.1875q-0.078125 0.078125 -0.265625 0.078125l-1.734375 0q-0.1875 0 -0.28125 -0.078125q-0.078125 -0.078125 -0.078125 -0.1875q0 -0.125 0.078125 -0.1875q0.09375 -0.078125 0.28125 -0.078125l0.375 0l-2.296875 -2.359375l-0.609375 0.515625zm16.961914 -4.515625l0 6.359375l1.828125 0q0.1875 0 0.265625 0.078125q0.09375 0.0625 0.09375 0.1875q0 0.109375 -0.09375 0.1875q-0.078125 0.078125 -0.265625 0.078125l-4.1875 0q-0.1875 0 -0.28125 -0.078125q-0.078125 -0.078125 -0.078125 -0.1875q0 -0.125 0.078125 -0.1875q0.09375 -0.078125 0.28125 -0.078125l1.828125 0l0 -6.359375l-1.828125 0q-0.1875 0 -0.28125 -0.078125q-0.078125 -0.078125 -0.078125 -0.1875q0 -0.125 0.078125 -0.1875q0.09375 -0.078125 0.28125 -0.078125l4.1875 0q0.1875 0 0.265625 0.078125q0.09375 0.0625 0.09375 0.1875q0 0.109375 -0.09375 0.1875q-0.078125 0.078125 -0.265625 0.078125l-1.828125 0zm5.8012695 1.390625l0 0.8125q0.5625 -0.5625 1.015625 -0.78125q0.453125 -0.21875 1.015625 -0.21875q0.609375 0 1.109375 0.265625q0.359375 0.1875 0.640625 0.625q0.296875 0.4375 0.296875 0.90625l0 3.359375l0.453125 0q0.1875 0 0.265625 0.078125q0.078125 0.0625 0.078125 0.1875q0 0.109375 -0.078125 0.1875q-0.078125 0.078125 -0.265625 0.078125l-1.4375 0q-0.1875 0 -0.28125 -0.078125q-0.078125 -0.078125 -0.078125 -0.1875q0 -0.125 0.078125 -0.1875q0.09375 -0.078125 0.28125 -0.078125l0.453125 0l0 -3.265625q0 -0.578125 -0.421875 -0.953125q-0.40625 -0.390625 -1.09375 -0.390625q-0.53125 0 -0.921875 0.21875q-0.390625 0.203125 -1.109375 1.046875l0 3.34375l0.609375 0q0.1875 0 0.265625 0.078125q0.09375 0.0625 0.09375 0.1875q0 0.109375 -0.09375 0.1875q-0.078125 0.078125 -0.265625 0.078125l-1.734375 0q-0.203125 0 -0.28125 -0.078125q-0.078125 -0.078125 -0.078125 -0.1875q0 -0.125 0.078125 -0.1875q0.078125 -0.078125 0.28125 -0.078125l0.59375 0l0 -4.421875l-0.453125 0q-0.1875 0 -0.265625 -0.078125q-0.078125 -0.078125 -0.078125 -0.203125q0 -0.109375 0.078125 -0.1875q0.078125 -0.078125 0.265625 -0.078125l0.984375 0zm11.754395 0.546875l0 -0.1875q0 -0.1875 0.078125 -0.265625q0.078125 -0.09375 0.1875 -0.09375q0.125 0 0.203125 0.09375q0.078125 0.078125 0.078125 0.265625l0 1.21875q-0.015625 0.1875 -0.09375 0.28125q-0.0625 0.078125 -0.1875 0.078125q-0.109375 0 -0.1875 -0.078125q-0.0625 -0.078125 -0.078125 -0.25q-0.03125 -0.4375 -0.59375 -0.84375q-0.546875 -0.40625 -1.5 -0.40625q-1.1875 0 -1.796875 0.75q-0.609375 0.734375 -0.609375 1.6875q0 1.03125 0.671875 1.703125q0.6875 0.671875 1.765625 0.671875q0.609375 0 1.25 -0.21875q0.65625 -0.234375 1.171875 -0.734375q0.140625 -0.140625 0.234375 -0.140625q0.109375 0 0.171875 0.078125q0.078125 0.078125 0.078125 0.1875q0 0.265625 -0.640625 0.6875q-1.03125 0.671875 -2.296875 0.671875q-1.28125 0 -2.125 -0.8125q-0.828125 -0.828125 -0.828125 -2.09375q0 -1.28125 0.84375 -2.125q0.859375 -0.859375 2.140625 -0.859375q1.234375 0 2.0625 0.734375zm8.55127 2.21875q0 1.21875 -0.875 2.078125q-0.859375 0.859375 -2.09375 0.859375q-1.25 0 -2.125 -0.859375q-0.859375 -0.875 -0.859375 -2.078125q0 -1.21875 0.859375 -2.078125q0.875 -0.875 2.125 -0.875q1.234375 0 2.09375 0.859375q0.875 0.859375 0.875 2.09375zm-0.53125 0q0 -1.0 -0.71875 -1.703125q-0.71875 -0.703125 -1.734375 -0.703125q-1.015625 0 -1.734375 0.703125q-0.703125 0.703125 -0.703125 1.703125q0 0.984375 0.703125 1.703125q0.71875 0.703125 1.734375 0.703125q1.015625 0 1.734375 -0.703125q0.71875 -0.703125 0.71875 -1.703125zm2.9262695 -2.765625l0 0.546875q0.6875 -0.734375 1.375 -0.734375q0.40625 0 0.71875 0.21875q0.3125 0.21875 0.515625 0.65625q0.359375 -0.4375 0.71875 -0.65625q0.375 -0.21875 0.734375 -0.21875q0.578125 0 0.921875 0.375q0.453125 0.484375 0.453125 1.046875l0 3.734375l0.453125 0q0.1875 0 0.265625 0.078125q0.09375 0.0625 0.09375 0.1875q0 0.109375 -0.09375 0.1875q-0.078125 0.078125 -0.265625 0.078125l-0.984375 0l0 -4.203125q0 -0.40625 -0.25 -0.671875q-0.25 -0.265625 -0.578125 -0.265625q-0.28125 0 -0.609375 0.21875q-0.328125 0.21875 -0.734375 0.859375l0 3.53125l0.4375 0q0.203125 0 0.28125 0.078125q0.078125 0.0625 0.078125 0.1875q0 0.109375 -0.078125 0.1875q-0.078125 0.078125 -0.28125 0.078125l-0.984375 0l0 -4.171875q0 -0.421875 -0.25 -0.6875q-0.25 -0.28125 -0.5625 -0.28125q-0.28125 0 -0.5625 0.171875q-0.390625 0.265625 -0.8125 0.90625l0 3.53125l0.453125 0q0.1875 0 0.265625 0.078125q0.09375 0.0625 0.09375 0.1875q0 0.109375 -0.09375 0.1875q-0.078125 0.078125 -0.265625 0.078125l-1.4375 0q-0.1875 0 -0.265625 -0.078125q-0.078125 -0.078125 -0.078125 -0.1875q0 -0.125 0.078125 -0.1875q0.078125 -0.078125 0.265625 -0.078125l0.453125 0l0 -4.421875l-0.453125 0q-0.1875 0 -0.265625 -0.078125q-0.078125 -0.078125 -0.078125 -0.203125q0 -0.109375 0.078125 -0.1875q0.078125 -0.078125 0.265625 -0.078125l0.984375 0zm8.223145 0l0 0.96875q0.484375 -0.578125 1.015625 -0.859375q0.546875 -0.296875 1.296875 -0.296875q0.78125 0 1.453125 0.375q0.671875 0.359375 1.03125 1.015625q0.359375 0.65625 0.359375 1.390625q0 1.140625 -0.828125 1.953125q-0.8125 0.8125 -2.015625 0.8125q-1.421875 0 -2.3125 -1.15625l0 3.21875l1.296875 0q0.1875 0 0.265625 0.0625q0.09375 0.078125 0.09375 0.203125q0 0.109375 -0.09375 0.1875q-0.078125 0.078125 -0.265625 0.078125l-2.546875 0q-0.1875 0 -0.28125 -0.078125q-0.078125 -0.078125 -0.078125 -0.1875q0 -0.125 0.078125 -0.203125q0.09375 -0.0625 0.28125 -0.0625l0.71875 0l0 -6.875l-0.71875 0q-0.1875 0 -0.28125 -0.078125q-0.078125 -0.078125 -0.078125 -0.203125q0 -0.109375 0.078125 -0.1875q0.09375 -0.078125 0.28125 -0.078125l1.25 0zm4.625 2.59375q0 -0.921875 -0.671875 -1.578125q-0.671875 -0.65625 -1.640625 -0.65625q-0.96875 0 -1.640625 0.65625q-0.671875 0.65625 -0.671875 1.578125q0 0.90625 0.671875 1.578125q0.671875 0.65625 1.640625 0.65625q0.96875 0 1.640625 -0.65625q0.671875 -0.65625 0.671875 -1.578125zm5.4575195 -5.0625l0 7.4375l2.09375 0q0.203125 0 0.28125 0.078125q0.078125 0.0625 0.078125 0.1875q0 0.109375 -0.078125 0.1875q-0.078125 0.078125 -0.28125 0.078125l-4.71875 0q-0.1875 0 -0.28125 -0.078125q-0.078125 -0.078125 -0.078125 -0.1875q0 -0.125 0.078125 -0.1875q0.09375 -0.078125 0.28125 -0.078125l2.09375 0l0 -6.890625l-1.546875 0q-0.1875 0 -0.28125 -0.078125q-0.078125 -0.078125 -0.078125 -0.203125q0 -0.109375 0.078125 -0.1875q0.09375 -0.078125 0.28125 -0.078125l2.078125 0zm10.410645 5.34375l-5.421875 0q0.125 1.03125 0.859375 1.671875q0.734375 0.625 1.796875 0.625q0.59375 0 1.25 -0.1875q0.65625 -0.203125 1.0625 -0.53125q0.125 -0.09375 0.21875 -0.09375q0.09375 0 0.171875 0.078125q0.078125 0.078125 0.078125 0.1875q0 0.109375 -0.09375 0.21875q-0.3125 0.3125 -1.09375 0.59375q-0.765625 0.265625 -1.59375 0.265625q-1.375 0 -2.296875 -0.890625q-0.90625 -0.90625 -0.90625 -2.171875q0 -1.171875 0.859375 -2.0q0.859375 -0.828125 2.125 -0.828125q1.3125 0 2.15625 0.859375q0.84375 0.84375 0.828125 2.203125zm-0.53125 -0.53125q-0.15625 -0.890625 -0.84375 -1.4375q-0.671875 -0.546875 -1.609375 -0.546875q-0.921875 0 -1.59375 0.546875q-0.671875 0.53125 -0.84375 1.4375l4.890625 0zm4.3637695 -2.34375l2.890625 0q0.1875 0 0.265625 0.078125q0.09375 0.078125 0.09375 0.203125q0 0.109375 -0.09375 0.1875q-0.078125 0.078125 -0.265625 0.078125l-2.890625 0l0 3.546875q0 0.453125 0.359375 0.765625q0.375 0.3125 1.09375 0.3125q0.546875 0 1.171875 -0.15625q0.625 -0.15625 0.96875 -0.359375q0.125 -0.09375 0.21875 -0.09375q0.09375 0 0.171875 0.078125q0.078125 0.078125 0.078125 0.1875q0 0.09375 -0.078125 0.1875q-0.203125 0.203125 -1.0 0.453125q-0.78125 0.234375 -1.5 0.234375q-0.921875 0 -1.484375 -0.4375q-0.546875 -0.4375 -0.546875 -1.171875l0 -3.546875l-0.984375 0q-0.1875 0 -0.28125 -0.078125q-0.078125 -0.078125 -0.078125 -0.203125q0 -0.109375 0.078125 -0.1875q0.09375 -0.078125 0.28125 -0.078125l0.984375 0l0 -1.578125q0 -0.1875 0.078125 -0.265625q0.078125 -0.078125 0.1875 -0.078125q0.125 0 0.203125 0.078125q0.078125 0.078125 0.078125 0.265625l0 1.578125zm11.77002 2.875l-5.421875 0q0.125 1.03125 0.859375 1.671875q0.734375 0.625 1.796875 0.625q0.59375 0 1.25 -0.1875q0.65625 -0.203125 1.0625 -0.53125q0.125 -0.09375 0.21875 -0.09375q0.09375 0 0.171875 0.078125q0.078125 0.078125 0.078125 0.1875q0 0.109375 -0.09375 0.21875q-0.3125 0.3125 -1.09375 0.59375q-0.765625 0.265625 -1.59375 0.265625q-1.375 0 -2.296875 -0.890625q-0.90625 -0.90625 -0.90625 -2.171875q0 -1.171875 0.859375 -2.0q0.859375 -0.828125 2.125 -0.828125q1.3125 0 2.15625 0.859375q0.84375 0.84375 0.828125 2.203125zm-0.53125 -0.53125q-0.15625 -0.890625 -0.84375 -1.4375q-0.671875 -0.546875 -1.609375 -0.546875q-0.921875 0 -1.59375 0.546875q-0.671875 0.53125 -0.84375 1.4375l4.890625 0z" fill-rule="nonzero"></path><path fill="#000000" fill-opacity="0.0" d="m231.4147 229.28094l0 0c0 -2.6933594 2.1833801 -4.8767395 4.8767395 -4.8767395l133.71109 0c1.293396 0 2.5338135 0.51379395 3.4483643 1.42836c0.9145813 0.91456604 1.4283752 2.1549835 1.4283752 3.4483795l0 19.506363c0 2.693344 -2.1834106 4.8767395 -4.8767395 4.8767395l-133.71109 0l0 0c-2.6933594 0 -4.8767395 -2.1833954 -4.8767395 -4.8767395z" fill-rule="evenodd"></path><path stroke="#000000" stroke-width="1.0" stroke-linejoin="round" stroke-linecap="butt" d="m231.4147 229.28094l0 0c0 -2.6933594 2.1833801 -4.8767395 4.8767395 -4.8767395l133.71109 0c1.293396 0 2.5338135 0.51379395 3.4483643 1.42836c0.9145813 0.91456604 1.4283752 2.1549835 1.4283752 3.4483795l0 19.506363c0 2.693344 -2.1834106 4.8767395 -4.8767395 4.8767395l-133.71109 0l0 0c-2.6933594 0 -4.8767395 -2.1833954 -4.8767395 -4.8767395z" fill-rule="evenodd"></path><path fill="#000000" d="m248.88747 241.59975l-0.609375 0l-2.046875 -4.65625l-0.109375 0l0 6.359375l0.984375 0q0.203125 0 0.28125 0.078125q0.078125 0.0625 0.078125 0.1875q0 0.109375 -0.078125 0.1875q-0.078125 0.078125 -0.28125 0.078125l-1.953125 0q-0.203125 0 -0.28125 -0.078125q-0.078125 -0.078125 -0.078125 -0.1875q0 -0.125 0.078125 -0.1875q0.078125 -0.078125 0.28125 -0.078125l0.4375 0l0 -6.359375l-0.328125 0q-0.1875 0 -0.28125 -0.078125q-0.078125 -0.078125 -0.078125 -0.1875q0 -0.125 0.078125 -0.1875q0.09375 -0.078125 0.28125 -0.078125l1.3125 0l2.015625 4.59375l1.984375 -4.59375l1.3125 0q0.1875 0 0.265625 0.078125q0.09375 0.0625 0.09375 0.1875q0 0.109375 -0.09375 0.1875q-0.078125 0.078125 -0.265625 0.078125l-0.34375 0l0 6.359375l0.453125 0q0.1875 0 0.265625 0.078125q0.09375 0.0625 0.09375 0.1875q0 0.109375 -0.09375 0.1875q-0.078125 0.078125 -0.265625 0.078125l-1.96875 0q-0.1875 0 -0.28125 -0.078125q-0.078125 -0.078125 -0.078125 -0.1875q0 -0.125 0.078125 -0.1875q0.09375 -0.078125 0.28125 -0.078125l0.984375 0l0 -6.359375l-0.109375 0l-2.015625 4.65625zm8.988754 2.234375l0 -0.765625q-1.171875 0.96875 -2.4843597 0.96875q-0.953125 0 -1.5 -0.484375q-0.53125 -0.484375 -0.53125 -1.1875q0 -0.765625 0.703125 -1.34375q0.71875 -0.578125 2.0781097 -0.578125q0.359375 0 0.796875 0.046875q0.4375 0.046875 0.9375 0.140625l0 -0.859375q0 -0.4375 -0.40625 -0.75q-0.40625 -0.328125 -1.21875 -0.328125q-0.62498474 0 -1.7499847 0.359375q-0.203125 0.0625 -0.265625 0.0625q-0.09375 0 -0.171875 -0.078125q-0.0625 -0.078125 -0.0625 -0.1875q0 -0.109375 0.0625 -0.171875q0.078125 -0.09375 0.71875 -0.265625q0.984375 -0.265625 1.4843597 -0.265625q1.015625 0 1.578125 0.5q0.5625 0.5 0.5625 1.125l0 3.53125l0.71875 0q0.1875 0 0.265625 0.078125q0.09375 0.0625 0.09375 0.1875q0 0.109375 -0.09375 0.1875q-0.078125 0.078125 -0.265625 0.078125l-1.25 0zm0 -2.65625q-0.375 -0.109375 -0.796875 -0.15625q-0.421875 -0.046875 -0.875 -0.046875q-1.1718597 0 -1.8281097 0.5q-0.484375 0.375 -0.484375 0.890625q0 0.484375 0.375 0.8125q0.375 0.328125 1.09375 0.328125q0.70310974 0 1.2968597 -0.265625q0.59375 -0.28125 1.21875 -0.890625l0 -1.171875zm5.6293945 -2.84375l0 1.34375q1.03125 -0.9375 1.546875 -1.203125q0.53125 -0.265625 0.96875 -0.265625q0.46875 0 0.875 0.328125q0.421875 0.3125 0.421875 0.46875q0 0.125 -0.09375 0.203125q-0.078125 0.078125 -0.1875 0.078125q-0.0625 0 -0.109375 -0.015625q-0.046875 -0.03125 -0.171875 -0.140625q-0.21875 -0.234375 -0.390625 -0.3125q-0.15625 -0.078125 -0.3125 -0.078125q-0.359375 0 -0.859375 0.28125q-0.484375 0.28125 -1.6875 1.359375l0 2.921875l2.359375 0q0.203125 0 0.28125 0.078125q0.078125 0.0625 0.078125 0.1875q0 0.109375 -0.078125 0.1875q-0.078125 0.078125 -0.28125 0.078125l-4.1875 0q-0.1875 0 -0.28125 -0.0625q-0.078125 -0.078125 -0.078125 -0.203125q0 -0.109375 0.078125 -0.171875q0.09375 -0.078125 0.28125 -0.078125l1.296875 0l0 -4.4375l-0.984375 0q-0.1875 0 -0.28125 -0.078125q-0.078125 -0.078125 -0.078125 -0.203125q0 -0.109375 0.078125 -0.1875q0.078125 -0.078125 0.28125 -0.078125l1.515625 0zm7.3481445 3.125l0 2.375l-1.25 0q-0.1875 0 -0.265625 -0.078125q-0.078125 -0.078125 -0.078125 -0.1875q0 -0.125 0.078125 -0.1875q0.078125 -0.078125 0.265625 -0.078125l0.71875 0l0 -6.890625l-0.71875 0q-0.1875 0 -0.265625 -0.078125q-0.078125 -0.078125 -0.078125 -0.203125q0 -0.109375 0.078125 -0.1875q0.078125 -0.078125 0.265625 -0.078125l1.25 0l0 4.921875l2.265625 -1.90625l-0.265625 0q-0.1875 0 -0.28125 -0.078125q-0.078125 -0.078125 -0.078125 -0.1875q0 -0.125 0.078125 -0.203125q0.09375 -0.078125 0.28125 -0.078125l1.703125 0q0.203125 0 0.28125 0.078125q0.078125 0.078125 0.078125 0.203125q0 0.109375 -0.078125 0.1875q-0.078125 0.078125 -0.28125 0.078125l-0.609375 0l-2.078125 1.734375l2.625 2.6875l0.625 0q0.1875 0 0.265625 0.078125q0.09375 0.0625 0.09375 0.1875q0 0.109375 -0.09375 0.1875q-0.078125 0.078125 -0.265625 0.078125l-1.734375 0q-0.1875 0 -0.28125 -0.078125q-0.078125 -0.078125 -0.078125 -0.1875q0 -0.125 0.078125 -0.1875q0.09375 -0.078125 0.28125 -0.078125l0.375 0l-2.296875 -2.359375l-0.609375 0.515625zm16.961914 -4.515625l0 6.359375l1.828125 0q0.1875 0 0.265625 0.078125q0.09375 0.0625 0.09375 0.1875q0 0.109375 -0.09375 0.1875q-0.078125 0.078125 -0.265625 0.078125l-4.1875 0q-0.1875 0 -0.28125 -0.078125q-0.078125 -0.078125 -0.078125 -0.1875q0 -0.125 0.078125 -0.1875q0.09375 -0.078125 0.28125 -0.078125l1.828125 0l0 -6.359375l-1.828125 0q-0.1875 0 -0.28125 -0.078125q-0.078125 -0.078125 -0.078125 -0.1875q0 -0.125 0.078125 -0.1875q0.09375 -0.078125 0.28125 -0.078125l4.1875 0q0.1875 0 0.265625 0.078125q0.09375 0.0625 0.09375 0.1875q0 0.109375 -0.09375 0.1875q-0.078125 0.078125 -0.265625 0.078125l-1.828125 0zm5.8012695 1.390625l0 0.8125q0.5625 -0.5625 1.015625 -0.78125q0.453125 -0.21875 1.015625 -0.21875q0.609375 0 1.109375 0.265625q0.359375 0.1875 0.640625 0.625q0.296875 0.4375 0.296875 0.90625l0 3.359375l0.453125 0q0.1875 0 0.265625 0.078125q0.078125 0.0625 0.078125 0.1875q0 0.109375 -0.078125 0.1875q-0.078125 0.078125 -0.265625 0.078125l-1.4375 0q-0.1875 0 -0.28125 -0.078125q-0.078125 -0.078125 -0.078125 -0.1875q0 -0.125 0.078125 -0.1875q0.09375 -0.078125 0.28125 -0.078125l0.453125 0l0 -3.265625q0 -0.578125 -0.421875 -0.953125q-0.40625 -0.390625 -1.09375 -0.390625q-0.53125 0 -0.921875 0.21875q-0.390625 0.203125 -1.109375 1.046875l0 3.34375l0.609375 0q0.1875 0 0.265625 0.078125q0.09375 0.0625 0.09375 0.1875q0 0.109375 -0.09375 0.1875q-0.078125 0.078125 -0.265625 0.078125l-1.734375 0q-0.203125 0 -0.28125 -0.078125q-0.078125 -0.078125 -0.078125 -0.1875q0 -0.125 0.078125 -0.1875q0.078125 -0.078125 0.28125 -0.078125l0.59375 0l0 -4.421875l-0.453125 0q-0.1875 0 -0.265625 -0.078125q-0.078125 -0.078125 -0.078125 -0.203125q0 -0.109375 0.078125 -0.1875q0.078125 -0.078125 0.265625 -0.078125l0.984375 0zm11.754395 0.546875l0 -0.1875q0 -0.1875 0.078125 -0.265625q0.078125 -0.09375 0.1875 -0.09375q0.125 0 0.203125 0.09375q0.078125 0.078125 0.078125 0.265625l0 1.21875q-0.015625 0.1875 -0.09375 0.28125q-0.0625 0.078125 -0.1875 0.078125q-0.109375 0 -0.1875 -0.078125q-0.0625 -0.078125 -0.078125 -0.25q-0.03125 -0.4375 -0.59375 -0.84375q-0.546875 -0.40625 -1.5 -0.40625q-1.1875 0 -1.796875 0.75q-0.609375 0.734375 -0.609375 1.6875q0 1.03125 0.671875 1.703125q0.6875 0.671875 1.765625 0.671875q0.609375 0 1.25 -0.21875q0.65625 -0.234375 1.171875 -0.734375q0.140625 -0.140625 0.234375 -0.140625q0.109375 0 0.171875 0.078125q0.078125 0.078125 0.078125 0.1875q0 0.265625 -0.640625 0.6875q-1.03125 0.671875 -2.296875 0.671875q-1.28125 0 -2.125 -0.8125q-0.828125 -0.828125 -0.828125 -2.09375q0 -1.28125 0.84375 -2.125q0.859375 -0.859375 2.140625 -0.859375q1.234375 0 2.0625 0.734375zm8.55127 2.21875q0 1.21875 -0.875 2.078125q-0.859375 0.859375 -2.09375 0.859375q-1.25 0 -2.125 -0.859375q-0.859375 -0.875 -0.859375 -2.078125q0 -1.21875 0.859375 -2.078125q0.875 -0.875 2.125 -0.875q1.234375 0 2.09375 0.859375q0.875 0.859375 0.875 2.09375zm-0.53125 0q0 -1.0 -0.71875 -1.703125q-0.71875 -0.703125 -1.734375 -0.703125q-1.015625 0 -1.734375 0.703125q-0.703125 0.703125 -0.703125 1.703125q0 0.984375 0.703125 1.703125q0.71875 0.703125 1.734375 0.703125q1.015625 0 1.734375 -0.703125q0.71875 -0.703125 0.71875 -1.703125zm2.9262695 -2.765625l0 0.546875q0.6875 -0.734375 1.375 -0.734375q0.40625 0 0.71875 0.21875q0.3125 0.21875 0.515625 0.65625q0.359375 -0.4375 0.71875 -0.65625q0.375 -0.21875 0.734375 -0.21875q0.578125 0 0.921875 0.375q0.453125 0.484375 0.453125 1.046875l0 3.734375l0.453125 0q0.1875 0 0.265625 0.078125q0.09375 0.0625 0.09375 0.1875q0 0.109375 -0.09375 0.1875q-0.078125 0.078125 -0.265625 0.078125l-0.984375 0l0 -4.203125q0 -0.40625 -0.25 -0.671875q-0.25 -0.265625 -0.578125 -0.265625q-0.28125 0 -0.609375 0.21875q-0.328125 0.21875 -0.734375 0.859375l0 3.53125l0.4375 0q0.203125 0 0.28125 0.078125q0.078125 0.0625 0.078125 0.1875q0 0.109375 -0.078125 0.1875q-0.078125 0.078125 -0.28125 0.078125l-0.984375 0l0 -4.171875q0 -0.421875 -0.25 -0.6875q-0.25 -0.28125 -0.5625 -0.28125q-0.28125 0 -0.5625 0.171875q-0.390625 0.265625 -0.8125 0.90625l0 3.53125l0.453125 0q0.1875 0 0.265625 0.078125q0.09375 0.0625 0.09375 0.1875q0 0.109375 -0.09375 0.1875q-0.078125 0.078125 -0.265625 0.078125l-1.4375 0q-0.1875 0 -0.265625 -0.078125q-0.078125 -0.078125 -0.078125 -0.1875q0 -0.125 0.078125 -0.1875q0.078125 -0.078125 0.265625 -0.078125l0.453125 0l0 -4.421875l-0.453125 0q-0.1875 0 -0.265625 -0.078125q-0.078125 -0.078125 -0.078125 -0.203125q0 -0.109375 0.078125 -0.1875q0.078125 -0.078125 0.265625 -0.078125l0.984375 0zm8.223145 0l0 0.96875q0.484375 -0.578125 1.015625 -0.859375q0.546875 -0.296875 1.296875 -0.296875q0.78125 0 1.453125 0.375q0.671875 0.359375 1.03125 1.015625q0.359375 0.65625 0.359375 1.390625q0 1.140625 -0.828125 1.953125q-0.8125 0.8125 -2.015625 0.8125q-1.421875 0 -2.3125 -1.15625l0 3.21875l1.296875 0q0.1875 0 0.265625 0.0625q0.09375 0.078125 0.09375 0.203125q0 0.109375 -0.09375 0.1875q-0.078125 0.078125 -0.265625 0.078125l-2.546875 0q-0.1875 0 -0.28125 -0.078125q-0.078125 -0.078125 -0.078125 -0.1875q0 -0.125 0.078125 -0.203125q0.09375 -0.0625 0.28125 -0.0625l0.71875 0l0 -6.875l-0.71875 0q-0.1875 0 -0.28125 -0.078125q-0.078125 -0.078125 -0.078125 -0.203125q0 -0.109375 0.078125 -0.1875q0.09375 -0.078125 0.28125 -0.078125l1.25 0zm4.625 2.59375q0 -0.921875 -0.671875 -1.578125q-0.671875 -0.65625 -1.640625 -0.65625q-0.96875 0 -1.640625 0.65625q-0.671875 0.65625 -0.671875 1.578125q0 0.90625 0.671875 1.578125q0.671875 0.65625 1.640625 0.65625q0.96875 0 1.640625 -0.65625q0.671875 -0.65625 0.671875 -1.578125zm5.4575195 -5.0625l0 7.4375l2.09375 0q0.203125 0 0.28125 0.078125q0.078125 0.0625 0.078125 0.1875q0 0.109375 -0.078125 0.1875q-0.078125 0.078125 -0.28125 0.078125l-4.71875 0q-0.1875 0 -0.28125 -0.078125q-0.078125 -0.078125 -0.078125 -0.1875q0 -0.125 0.078125 -0.1875q0.09375 -0.078125 0.28125 -0.078125l2.09375 0l0 -6.890625l-1.546875 0q-0.1875 0 -0.28125 -0.078125q-0.078125 -0.078125 -0.078125 -0.203125q0 -0.109375 0.078125 -0.1875q0.09375 -0.078125 0.28125 -0.078125l2.078125 0zm10.410645 5.34375l-5.421875 0q0.125 1.03125 0.859375 1.671875q0.734375 0.625 1.796875 0.625q0.59375 0 1.25 -0.1875q0.65625 -0.203125 1.0625 -0.53125q0.125 -0.09375 0.21875 -0.09375q0.09375 0 0.171875 0.078125q0.078125 0.078125 0.078125 0.1875q0 0.109375 -0.09375 0.21875q-0.3125 0.3125 -1.09375 0.59375q-0.765625 0.265625 -1.59375 0.265625q-1.375 0 -2.296875 -0.890625q-0.90625 -0.90625 -0.90625 -2.171875q0 -1.171875 0.859375 -2.0q0.859375 -0.828125 2.125 -0.828125q1.3125 0 2.15625 0.859375q0.84375 0.84375 0.828125 2.203125zm-0.53125 -0.53125q-0.15625 -0.890625 -0.84375 -1.4375q-0.671875 -0.546875 -1.609375 -0.546875q-0.921875 0 -1.59375 0.546875q-0.671875 0.53125 -0.84375 1.4375l4.890625 0zm4.3637695 -2.34375l2.890625 0q0.1875 0 0.265625 0.078125q0.09375 0.078125 0.09375 0.203125q0 0.109375 -0.09375 0.1875q-0.078125 0.078125 -0.265625 0.078125l-2.890625 0l0 3.546875q0 0.453125 0.359375 0.765625q0.375 0.3125 1.09375 0.3125q0.546875 0 1.171875 -0.15625q0.625 -0.15625 0.96875 -0.359375q0.125 -0.09375 0.21875 -0.09375q0.09375 0 0.171875 0.078125q0.078125 0.078125 0.078125 0.1875q0 0.09375 -0.078125 0.1875q-0.203125 0.203125 -1.0 0.453125q-0.78125 0.234375 -1.5 0.234375q-0.921875 0 -1.484375 -0.4375q-0.546875 -0.4375 -0.546875 -1.171875l0 -3.546875l-0.984375 0q-0.1875 0 -0.28125 -0.078125q-0.078125 -0.078125 -0.078125 -0.203125q0 -0.109375 0.078125 -0.1875q0.09375 -0.078125 0.28125 -0.078125l0.984375 0l0 -1.578125q0 -0.1875 0.078125 -0.265625q0.078125 -0.078125 0.1875 -0.078125q0.125 0 0.203125 0.078125q0.078125 0.078125 0.078125 0.265625l0 1.578125zm11.77002 2.875l-5.421875 0q0.125 1.03125 0.859375 1.671875q0.734375 0.625 1.796875 0.625q0.59375 0 1.25 -0.1875q0.65625 -0.203125 1.0625 -0.53125q0.125 -0.09375 0.21875 -0.09375q0.09375 0 0.171875 0.078125q0.078125 0.078125 0.078125 0.1875q0 0.109375 -0.09375 0.21875q-0.3125 0.3125 -1.09375 0.59375q-0.765625 0.265625 -1.59375 0.265625q-1.375 0 -2.296875 -0.890625q-0.90625 -0.90625 -0.90625 -2.171875q0 -1.171875 0.859375 -2.0q0.859375 -0.828125 2.125 -0.828125q1.3125 0 2.15625 0.859375q0.84375 0.84375 0.828125 2.203125zm-0.53125 -0.53125q-0.15625 -0.890625 -0.84375 -1.4375q-0.671875 -0.546875 -1.609375 -0.546875q-0.921875 0 -1.59375 0.546875q-0.671875 0.53125 -0.84375 1.4375l4.890625 0z" fill-rule="nonzero"></path></g></svg>

